{"glyphs":{"0":{"ha":735,"x_min":0,"x_max":0,"o":"m 813 399 b 815 451 815 417 815 433 b 469 844 815 656 678 844 b -7 383 236 844 21 624 b -10 326 -8 365 -10 344 b 338 -69 -10 119 125 -69 b 813 399 581 -69 785 175 z m 531 311 b 446 186 526 268 503 186 b 363 347 379 186 354 276 b 458 465 368 406 404 465 b 531 311 528 465 538 361 z "},"1":{"ha":457,"x_min":0,"x_max":0,"o":"m 90 685 b 72 567 82 647 76 607 b 56 288 61 478 56 381 b 88 -35 56 167 67 51 b 153 -33 104 -37 125 -37 b 422 63 242 -24 381 22 b 419 168 421 97 419 133 b 440 490 419 276 428 383 b 496 843 454 607 475 725 b 90 685 428 868 122 747 z "},"2":{"ha":719,"x_min":0,"x_max":0,"o":"m 793 639 b 796 681 794 654 796 668 b 565 872 796 811 693 871 b 7 613 388 872 107 771 b 3 565 4 601 3 585 b 101 314 3 486 31 357 b 381 472 171 389 322 468 b 397 465 394 474 397 469 b 13 85 388 388 61 225 b 8 46 10 71 8 58 b 24 -35 8 14 17 -12 b 67 -64 29 -47 46 -62 b 699 58 264 -17 536 43 b 722 129 710 74 718 100 b 725 169 724 143 725 156 b 708 238 725 203 719 231 b 363 181 601 231 489 213 b 793 639 531 300 767 451 z "},"3":{"ha":731,"x_min":0,"x_max":0,"o":"m 19 10 b 250 -56 56 -31 143 -56 b 374 -44 296 -56 336 -50 b 760 251 531 -19 742 101 b 639 406 771 336 707 389 b 804 629 728 468 793 543 b 806 668 806 642 806 654 b 514 865 793 815 656 865 b 425 858 483 865 456 863 b 7 593 254 835 64 693 b 158 354 -6 517 71 357 b 368 490 219 424 285 481 b 417 468 390 493 418 490 b 239 356 411 413 286 368 b 231 311 235 342 232 326 b 243 235 226 282 229 256 b 307 242 260 239 282 242 b 435 201 333 242 439 242 b 300 156 431 164 351 156 b 133 199 239 156 185 174 b 19 10 76 171 11 32 z "},"4":{"ha":756,"x_min":0,"x_max":0,"o":"m 703 38 b 689 153 697 67 690 117 b 806 192 738 167 781 181 b 821 229 815 200 819 214 b 806 324 826 263 817 306 b 692 290 771 311 732 301 b 739 822 693 415 715 681 b 629 853 726 844 682 853 b 356 801 532 853 403 826 b -33 139 229 633 -10 206 b -40 97 -39 126 -40 111 b -7 6 -40 56 -24 17 b 43 11 10 6 25 8 b 404 79 154 25 272 49 b 429 -56 410 38 421 -18 b 471 -57 439 -60 454 -58 b 703 38 549 -47 682 3 z m 374 368 b 386 221 378 304 379 286 l 251 197 b 374 368 288 260 351 344 z "},"5":{"ha":749,"x_min":0,"x_max":0,"o":"m 751 904 b 54 715 560 910 129 768 b 47 532 50 664 47 599 b 82 192 47 407 56 272 b 374 271 111 211 279 260 b 421 274 383 271 404 274 b 464 253 444 274 467 269 b 236 168 456 199 308 168 b 133 179 196 168 153 172 b 29 8 85 140 31 56 b 231 -49 82 -32 149 -49 b 311 -44 256 -49 282 -46 b 804 314 492 -22 782 118 b 629 464 817 428 733 464 b 357 411 535 464 443 436 b 351 476 354 426 351 449 b 750 561 481 514 647 550 b 772 654 761 586 768 618 b 778 756 776 683 778 719 b 751 904 778 821 771 883 z "},"6":{"ha":743,"x_min":0,"x_max":0,"o":"m 474 271 b 518 240 504 271 519 256 b 417 168 514 200 451 168 b 382 199 394 168 381 178 b 474 271 388 233 440 271 z m 829 782 b 640 863 801 833 721 863 b -1 256 361 863 33 529 b -6 200 -4 236 -6 218 b 244 -54 -6 40 86 -54 b 385 -36 294 -54 342 -46 b 801 313 563 3 785 156 b 661 439 813 406 739 439 b 317 299 554 439 401 392 b 540 501 333 408 429 501 b 625 478 576 501 622 488 b 829 782 704 496 847 740 z "},"7":{"ha":644,"x_min":0,"x_max":0,"o":"m 31 411 b 317 474 104 431 206 456 b 110 7 221 344 101 76 b 250 -43 122 -19 210 -67 b 704 513 311 128 558 414 b 756 706 726 546 744 628 b 764 808 761 743 764 778 b 747 888 764 850 758 881 b 53 749 538 892 161 808 b 18 640 36 733 24 690 b 11 531 14 606 11 567 b 31 411 11 472 18 424 z "},"8":{"ha":781,"x_min":0,"x_max":0,"o":"m 710 406 b 864 638 788 467 856 546 b 575 863 883 806 699 863 b 22 506 371 863 49 731 b 140 303 11 410 67 339 b 60 138 96 253 67 192 b 283 -57 42 8 132 -57 b 776 243 461 -57 751 32 b 710 406 785 315 753 379 z m 494 510 b 426 424 490 465 468 424 b 382 499 404 424 381 443 l 383 513 b 456 592 389 556 417 592 b 494 510 496 592 499 540 z m 503 194 b 447 129 497 154 479 129 b 408 182 422 129 406 147 b 464 247 413 218 435 247 b 503 194 488 247 506 229 z "},"9":{"ha":743,"x_min":0,"x_max":0,"o":"m 132 -50 b 183 -54 149 -53 167 -54 b 568 94 306 -54 456 10 b 826 506 696 194 806 333 b 829 554 829 522 829 539 b 535 872 829 731 707 872 b 0 408 306 872 21 649 b 215 160 -7 257 68 160 b 406 217 285 160 347 182 b 122 60 350 140 240 76 b 114 22 117 51 115 36 b 132 -50 110 -7 118 -40 z m 340 360 b 299 410 308 360 294 381 b 417 506 306 467 368 506 b 461 458 450 506 464 478 b 340 360 454 397 390 360 z "}," ":{"ha":219,"x_min":0,"x_max":0,"o":""},"!":{"ha":543,"x_min":0,"x_max":0,"o":"m 136 69 b 246 -56 128 -7 165 -57 b 519 168 367 -56 504 49 b 411 311 529 251 493 311 b 136 69 285 311 153 192 z m 126 775 b 122 728 124 761 122 744 b 228 311 122 593 181 361 b 460 406 244 299 432 368 b 603 926 482 543 510 646 b 563 932 593 931 581 932 b 126 775 433 932 156 831 z "},"\"":{"ha":831,"x_min":0,"x_max":0,"o":"m 796 579 b 842 950 785 646 822 872 b 800 954 831 953 815 954 b 501 861 699 954 538 900 b 156 768 407 875 194 810 b 257 382 143 656 211 421 b 478 501 307 381 461 468 b 475 556 476 515 475 533 b 496 826 475 635 483 757 b 567 463 492 692 543 499 b 796 579 610 458 785 532 z "},"#":{"ha":1236,"x_min":0,"x_max":0,"o":"m 122 214 b 113 175 115 203 113 190 b 156 74 113 131 140 75 l 292 100 b 329 -65 306 13 318 -50 b 606 18 389 -71 565 -28 l 606 68 b 607 160 606 93 606 125 b 731 181 647 167 689 175 b 751 18 735 97 743 35 b 1015 101 811 0 1001 64 b 1021 229 1015 142 1018 185 b 1236 258 1104 243 1178 253 b 1249 313 1244 268 1249 290 b 1228 382 1249 343 1242 375 b 1035 367 1178 381 1110 374 l 1054 499 b 1233 519 1124 508 1186 515 b 1250 564 1243 525 1247 543 b 1236 653 1256 599 1250 643 b 1076 639 1194 650 1139 644 b 1124 876 1093 728 1110 810 b 1074 888 1117 883 1097 888 b 743 793 1001 888 799 849 l 736 735 b 726 592 731 694 729 644 l 628 576 b 646 778 632 643 638 711 b 589 785 639 785 618 788 b 256 651 483 774 275 700 b 253 585 254 631 253 607 b 256 515 253 563 254 539 b 82 482 182 503 122 492 b 69 431 74 469 69 451 b 107 344 69 390 86 343 l 263 371 b 274 247 265 329 269 288 z m 724 449 b 725 324 724 406 724 364 l 611 306 l 618 431 z "},"$":{"ha":856,"x_min":0,"x_max":0,"o":"m 447 458 b 532 504 443 489 515 501 b 593 508 551 506 572 508 b 660 504 615 508 638 506 b 726 467 682 501 718 489 b 850 721 807 538 843 654 b 844 772 853 743 854 761 b 600 861 806 847 675 861 l 606 986 b 394 906 568 1003 415 949 l 393 822 b 68 483 193 746 82 601 b 256 261 54 360 144 289 b 113 63 176 218 100 121 b 393 -44 163 -33 294 -50 l 383 -185 b 601 -94 422 -212 582 -151 l 603 -7 b 881 256 732 39 868 138 b 674 419 894 378 760 408 b 447 458 565 433 451 429 z m 468 232 b 544 233 493 232 521 233 b 593 222 572 233 593 232 b 433 178 590 206 521 178 b 285 254 374 178 290 188 b 468 232 346 242 403 232 z "},"%":{"ha":1285,"x_min":0,"x_max":0,"o":"m 483 -86 b 722 306 526 3 618 153 b 692 175 706 261 693 218 b 864 -46 682 44 753 -46 b 1282 374 1071 -46 1258 176 l 1285 392 b 1111 608 1293 521 1221 608 b 876 515 1026 608 944 571 b 1118 781 963 625 1047 722 b 899 890 1106 839 989 893 b 836 871 874 890 854 883 b 626 538 799 829 693 657 l 614 517 b 622 563 618 531 619 546 b 453 796 638 692 567 796 b 36 389 247 796 64 583 b 33 346 33 374 33 360 b 210 139 33 222 106 139 b 511 308 325 139 433 211 b 371 -46 435 147 374 -7 b 483 -86 365 -74 438 -103 z m 281 429 b 332 490 285 458 301 490 b 374 414 369 490 376 439 b 317 344 369 382 349 344 b 281 429 275 344 279 401 z m 942 242 b 993 303 944 269 961 303 b 1033 225 1031 303 1036 251 b 976 157 1031 194 1008 157 b 942 242 935 157 939 214 z "},"&":{"ha":936,"x_min":0,"x_max":0,"o":"m 760 650 b 492 904 774 793 653 904 b 443 901 475 904 460 904 b 29 533 254 875 53 732 b 149 263 17 424 67 335 b -3 54 64 206 -3 140 b 183 -62 -4 -22 79 -75 b 521 76 307 -49 421 6 b 778 26 643 42 714 26 b 915 335 854 56 932 293 b 872 333 897 333 885 333 b 793 339 853 333 831 335 b 856 429 818 371 839 401 b 782 529 856 468 817 539 b 638 363 740 469 690 415 b 553 385 608 369 579 376 b 760 650 657 464 749 554 z m 356 543 b 413 618 360 575 381 614 b 454 540 450 624 457 567 b 408 449 450 506 433 476 b 356 543 372 475 353 506 z m 338 143 b 249 118 301 126 269 118 b 226 139 225 118 226 133 b 260 182 228 151 239 167 b 338 143 285 168 310 156 z "},"’":{"ha":419,"x_min":0,"x_max":0,"o":"m 139 844 b 138 796 138 829 138 814 b 199 464 138 667 168 508 b 381 532 229 457 324 492 b 481 942 394 646 418 760 b 425 943 469 946 450 947 b 139 844 336 933 181 885 z "},"(":{"ha":668,"x_min":0,"x_max":0,"o":"m 374 268 b 663 650 397 456 558 593 b 428 903 672 746 525 915 b 75 339 235 764 99 539 b 71 268 72 314 71 290 b 464 -112 71 -7 281 -112 b 542 -106 490 -112 517 -110 b 590 -7 564 -94 600 -33 b 369 210 442 4 369 74 b 374 268 369 228 371 247 z "},")":{"ha":653,"x_min":0,"x_max":0,"o":"m 335 317 b 93 13 314 143 185 50 b 133 -67 81 -15 111 -65 b 647 490 343 -8 614 203 b 651 546 650 510 651 528 b 340 978 651 761 504 917 b 81 626 231 961 81 699 b 338 357 181 613 338 542 b 335 317 338 344 336 331 z "},"*":{"ha":1039,"x_min":0,"x_max":0,"o":"m 669 51 b 665 179 667 90 665 133 b 667 247 665 201 665 224 b 874 243 743 244 814 243 l 925 243 b 975 332 950 257 969 299 b 964 381 978 351 975 371 b 731 418 917 381 831 393 b 1006 597 819 483 914 547 b 961 706 1017 632 1001 710 b 708 586 906 689 814 643 b 771 829 731 690 756 778 b 706 839 757 839 735 843 b 424 693 613 828 458 757 b 406 614 415 668 410 642 b 399 522 401 585 399 554 b 231 610 331 551 269 581 b 83 374 179 592 94 463 b 85 338 82 360 82 347 b 253 286 115 317 176 300 b 118 151 181 231 131 181 b 278 -15 99 75 228 -19 b 443 171 292 13 353 83 b 508 -14 465 85 492 15 b 669 51 529 -32 642 7 z "},"+":{"ha":947,"x_min":0,"x_max":0,"o":"m 93 246 b 324 310 149 263 231 286 b 379 42 333 199 356 100 b 431 32 389 33 407 31 b 608 94 497 35 601 68 b 619 219 608 124 613 168 b 644 383 626 268 633 325 b 893 414 740 401 828 414 b 917 471 906 422 914 446 b 893 553 922 506 917 544 b 843 551 876 553 861 553 b 675 538 792 549 733 543 b 757 818 697 644 726 749 b 678 832 744 831 714 835 b 325 685 551 828 335 750 b 315 482 318 618 314 551 b 106 436 231 468 158 453 b 69 313 75 403 69 353 b 93 246 71 281 79 254 z "},",":{"ha":457,"x_min":0,"x_max":0,"o":"m 140 19 b 26 -168 131 -71 49 -153 l 31 -190 b 429 243 200 -135 406 81 b 303 396 440 338 383 396 b 57 164 181 396 72 282 b 140 19 49 89 83 39 z "},"-":{"ha":681,"x_min":0,"x_max":0,"o":"m 586 585 b 143 515 435 582 282 561 b 107 422 124 497 113 461 b 104 369 106 406 104 388 b 126 285 104 328 111 292 b 594 417 189 310 414 401 b 617 469 607 425 614 444 b 586 585 624 517 615 574 z "},".":{"ha":450,"x_min":0,"x_max":0,"o":"m 42 165 b 158 17 31 79 71 17 b 433 258 288 17 418 131 b 311 404 443 343 401 404 b 42 165 183 404 56 293 z "},"/":{"ha":586,"x_min":0,"x_max":0,"o":"m 168 -15 b 633 757 235 171 478 586 b 406 856 615 813 493 863 b 344 836 381 856 361 849 b 197 528 314 793 247 651 b 51 19 110 313 47 81 b 168 -15 49 -6 125 -32 z "},":":{"ha":550,"x_min":0,"x_max":0,"o":"m 281 457 b 533 682 404 457 518 564 b 408 831 543 772 485 831 b 157 611 289 831 171 728 b 281 457 146 524 204 457 z m 269 43 b 522 268 393 43 508 151 b 397 418 533 358 474 418 b 146 199 278 418 160 314 b 269 43 136 111 193 43 z "},";":{"ha":544,"x_min":0,"x_max":0,"o":"m 229 415 b 482 640 353 415 468 521 b 357 789 493 731 433 789 b 106 568 238 789 119 685 b 229 415 94 481 153 415 z m 196 -6 b 81 -194 185 -96 106 -178 l 86 -217 b 483 218 256 -161 463 56 b 358 371 494 311 440 371 b 114 138 236 371 129 256 b 196 -6 106 63 140 13 z "},"<":{"ha":707,"x_min":0,"x_max":0,"o":"m 690 274 b 393 392 558 346 478 375 b 710 679 518 486 643 589 b 608 792 721 707 665 797 b 81 349 499 653 168 413 b 42 229 47 307 38 246 b 518 92 181 213 418 156 b 690 274 579 99 697 229 z "},"=":{"ha":796,"x_min":0,"x_max":0,"o":"m 122 618 b 81 519 99 597 86 558 b 101 397 74 464 83 406 b 758 526 206 414 576 515 b 793 626 779 556 789 593 b 776 694 797 660 793 689 b 740 696 765 696 754 696 b 614 692 706 696 661 693 b 122 618 442 678 214 644 z m 124 318 b 97 231 114 306 103 268 b 94 193 96 218 94 206 b 131 115 94 154 104 121 b 749 250 329 160 560 235 b 786 343 765 263 781 306 b 764 415 792 381 785 411 l 717 411 b 124 318 533 396 215 360 z "},">":{"ha":746,"x_min":0,"x_max":0,"o":"m 89 578 b 418 439 208 497 328 465 b 75 146 282 343 143 240 b 185 17 63 92 119 17 b 718 450 300 156 544 342 l 719 450 b 761 547 743 483 757 517 b 763 581 763 558 764 568 b 264 760 633 610 371 682 b 89 578 190 746 92 625 z "},"?":{"ha":875,"x_min":0,"x_max":0,"o":"m 332 406 b 343 258 331 375 332 281 b 614 343 372 244 582 318 b 618 401 614 368 613 386 b 917 740 754 472 897 588 b 683 949 928 872 814 949 b 101 713 506 949 247 865 b 218 425 78 663 158 444 b 506 589 297 503 440 589 b 531 563 528 589 532 574 b 332 406 526 515 379 417 z m 294 39 b 415 -69 283 -35 325 -83 b 449 -62 425 -69 438 -67 b 649 135 563 -32 636 53 b 557 265 660 208 631 265 b 504 257 542 265 525 263 b 294 39 394 225 308 125 z "},"@":{"ha":1160,"x_min":0,"x_max":0,"o":"m 708 988 b 29 288 326 918 57 610 b 26 249 28 274 26 261 b 436 -183 18 -22 192 -183 b 568 -171 486 -183 528 -179 b 885 -39 719 -144 808 -93 b 893 6 890 -26 893 -10 b 835 149 893 61 868 131 b 861 154 843 151 854 153 b 1188 549 1013 181 1160 321 l 1192 600 b 801 996 1199 825 1035 996 b 708 988 771 996 740 993 z m 343 326 b 518 100 338 215 393 100 b 719 185 592 100 668 138 b 815 149 747 161 781 153 b 515 46 719 88 618 46 b 292 308 354 46 288 165 b 294 346 292 321 293 333 b 731 750 321 569 529 750 b 950 517 890 750 951 663 b 906 379 947 457 933 392 b 861 601 872 365 861 501 b 863 649 861 618 863 635 b 865 699 863 669 865 686 b 760 713 829 706 794 713 b 343 326 549 713 349 543 z m 608 292 b 578 356 579 292 576 335 b 615 438 579 381 583 438 b 649 356 635 439 650 401 b 608 292 649 329 638 292 z "},"A":{"ha":785,"x_min":0,"x_max":0,"o":"m 226 714 b -56 -11 172 618 15 286 b 158 -58 -43 -42 72 -58 b 246 -47 199 -58 231 -56 b 278 88 247 -17 260 33 b 525 171 346 117 463 160 b 563 1 542 114 557 49 b 860 156 657 11 840 107 b 597 856 825 418 692 710 b 531 853 581 858 554 856 b 226 714 431 839 268 769 z m 349 276 b 425 433 376 344 406 401 b 481 318 443 406 461 368 b 349 276 443 310 393 293 z "},"B":{"ha":743,"x_min":0,"x_max":0,"o":"m 664 399 b 825 653 754 469 815 567 b 797 789 832 714 818 756 b 589 874 760 843 690 874 b 486 865 557 874 525 871 b 33 706 375 849 161 785 b 10 354 18 631 10 493 b 64 -67 10 154 26 -49 b 271 -44 140 -61 206 -56 b 731 256 606 11 711 154 b 664 399 740 317 715 375 z m 499 531 b 347 422 483 482 386 436 b 356 556 349 447 347 508 b 433 574 381 564 408 569 b 499 531 481 579 511 571 z m 464 271 b 350 179 475 240 424 201 b 347 268 347 188 346 243 b 413 288 372 281 396 286 b 464 271 442 292 458 283 z "},"C":{"ha":731,"x_min":0,"x_max":0,"o":"m 660 224 b 464 154 592 178 531 154 b 344 274 375 154 338 210 b 664 528 361 411 546 528 b 715 518 682 528 701 525 b 740 603 726 533 735 565 b 743 657 743 619 743 639 b 653 856 743 746 719 844 b 599 858 635 857 617 858 b -10 294 333 858 15 572 b -12 247 -11 279 -12 263 b 290 -56 -12 49 118 -56 b 326 -54 301 -56 314 -56 b 718 128 476 -43 622 36 b 660 224 732 156 696 226 z "},"D":{"ha":724,"x_min":0,"x_max":0,"o":"m 797 511 b 507 857 803 606 774 857 b 433 851 485 857 460 856 b 49 718 344 839 197 801 b 40 657 44 700 43 681 b 19 272 29 560 19 413 b 44 -49 19 146 26 24 b 110 -54 65 -53 88 -54 b 185 -50 135 -54 160 -53 b 789 433 539 -10 743 197 b 797 511 793 460 797 485 z m 514 344 b 363 206 501 278 446 224 b 357 297 360 232 357 263 b 367 418 357 332 360 371 b 435 446 390 432 410 443 b 514 344 503 454 526 413 z "},"E":{"ha":718,"x_min":0,"x_max":0,"o":"m 93 -44 b 710 69 360 14 522 50 b 733 174 724 85 733 132 b 708 247 733 208 726 242 b 356 185 606 242 449 210 b 354 256 354 200 354 225 b 642 310 432 281 557 304 b 658 354 651 319 657 338 b 640 463 667 389 664 433 b 358 404 625 471 439 431 b 367 474 363 431 364 456 b 761 543 533 517 663 532 b 818 725 786 575 808 651 b 821 794 819 749 821 772 b 788 900 821 851 811 894 b 39 693 535 890 74 729 b 24 625 32 681 28 657 b 10 321 15 551 10 436 b 29 -6 10 193 17 64 b 93 -44 33 -35 71 -47 z "},"F":{"ha":717,"x_min":0,"x_max":0,"o":"m 94 -54 b 426 61 182 -49 390 13 b 408 261 417 122 411 189 b 614 306 481 285 556 299 l 647 308 b 664 397 657 329 664 365 b 643 467 664 429 657 456 b 408 417 560 457 469 433 b 411 486 408 439 408 464 b 761 531 493 506 638 522 b 811 694 781 556 799 625 b 819 760 815 717 818 739 b 826 847 824 793 826 822 b 818 900 826 872 824 892 b 778 901 806 901 792 901 b 42 726 574 901 181 800 b 33 681 38 713 36 696 b 25 508 28 631 25 571 b 94 -54 25 286 57 17 z "},"G":{"ha":772,"x_min":0,"x_max":0,"o":"m 719 839 b 601 867 685 858 646 867 b 542 864 586 867 557 867 b -11 324 313 839 24 628 b -14 271 -14 306 -14 289 b 306 -57 -14 74 122 -57 b 815 332 528 -57 815 117 b 681 453 815 413 758 453 b 411 336 572 453 461 393 b 458 206 403 306 429 210 b 582 251 485 233 588 286 b 414 146 578 201 493 146 b 326 257 368 146 326 189 b 333 310 326 274 329 292 b 581 513 365 431 493 499 b 626 515 596 514 611 515 b 743 482 668 515 711 507 b 779 603 757 500 772 549 b 782 665 781 622 782 643 b 719 839 782 739 767 811 z "},"H":{"ha":826,"x_min":0,"x_max":0,"o":"m 31 672 l 31 560 b 81 -61 31 382 36 64 b 406 42 107 -85 396 -1 b 386 240 396 92 392 161 b 508 272 424 249 468 260 b 493 42 506 186 501 106 l 488 0 b 808 106 500 -33 779 56 b 875 507 833 204 857 356 b 910 926 896 683 911 856 b 858 929 897 931 881 931 b 492 792 750 915 536 844 b 513 428 506 729 514 586 b 385 394 474 414 431 403 b 396 771 385 547 390 693 b 342 771 385 775 367 774 b 31 672 247 761 68 718 z "},"I":{"ha":432,"x_min":0,"x_max":0,"o":"m 49 624 b 43 488 44 579 43 533 b 106 -44 43 257 83 31 b 143 -51 115 -49 128 -51 b 411 43 231 -51 399 0 b 443 540 410 118 418 394 b 489 756 456 629 474 711 b 432 765 474 763 456 765 b 49 624 303 765 68 671 z m 118 949 b 256 803 103 854 149 792 b 563 1063 388 818 536 924 b 567 1103 565 1076 567 1090 b 446 1229 567 1176 526 1229 b 386 1219 429 1229 408 1225 b 118 949 250 1186 142 1061 z "},"J":{"ha":768,"x_min":0,"x_max":0,"o":"m 797 521 b 857 690 818 528 847 601 b 863 764 860 715 863 740 b 831 869 863 817 854 860 b 46 683 569 868 167 757 b 17 592 31 668 21 632 b 13 519 14 568 13 543 b 56 364 13 442 28 369 l 238 417 b 267 239 265 367 271 292 b 169 68 258 156 243 93 b 110 58 154 63 132 58 b 68 63 96 58 82 60 b 32 -56 49 43 25 -36 b 190 -82 67 -74 118 -82 b 654 318 389 -82 622 75 b 660 397 657 343 660 369 b 643 503 660 432 656 468 l 643 504 b 797 521 699 513 751 518 z "},"K":{"ha":750,"x_min":0,"x_max":0,"o":"m 408 643 l 428 785 b 25 631 388 813 40 699 b 21 518 22 603 21 563 b 71 -47 21 329 42 38 b 147 -58 83 -56 113 -58 b 193 -57 163 -58 178 -57 b 379 -8 268 -50 350 -29 b 375 121 375 29 374 74 b 665 38 478 72 592 32 b 793 224 756 67 806 185 b 763 215 782 218 772 217 b 553 281 718 210 618 247 l 550 283 b 881 694 632 407 743 547 b 618 908 881 754 708 933 b 394 522 546 826 458 660 z "},"L":{"ha":643,"x_min":0,"x_max":0,"o":"m 697 260 b 414 192 635 253 508 221 b 410 272 411 217 410 243 b 431 539 410 351 418 443 l 438 607 b 471 839 447 686 460 765 b 422 846 458 843 442 846 b 376 843 407 846 393 844 b 43 715 247 826 81 754 b 25 388 31 621 25 506 b 26 303 25 358 25 331 b 82 -22 31 182 56 46 b 139 -58 97 -50 118 -58 b 182 -50 153 -58 168 -56 b 694 93 375 7 561 60 b 719 147 708 106 718 128 b 697 260 729 194 711 254 z "},"M":{"ha":972,"x_min":0,"x_max":0,"o":"m 556 132 b 669 381 592 175 633 271 b 649 122 668 294 658 206 l 643 76 b 631 -3 640 49 638 22 b 943 118 668 -17 906 53 b 1056 657 981 226 1029 464 b 1074 858 1067 740 1074 808 b 1067 924 1074 886 1071 908 b 1022 929 1056 931 1043 931 b 656 790 915 919 678 835 b 532 382 622 660 581 521 b 438 781 476 510 463 651 l 436 778 b 21 618 332 774 93 690 b 14 500 17 596 14 554 b 68 -42 14 319 39 17 b 125 -49 81 -46 101 -49 b 351 4 201 -49 314 -24 b 347 104 349 31 347 64 b 361 335 347 168 351 249 b 433 103 381 239 411 156 b 468 101 446 100 457 100 b 556 132 497 104 529 117 z "},"N":{"ha":838,"x_min":0,"x_max":0,"o":"m 564 -4 b 839 111 597 -15 804 57 b 911 629 857 186 886 421 b 929 868 921 707 931 808 b 843 893 918 885 886 893 b 528 807 739 893 606 858 b 554 331 531 757 553 546 b 388 753 479 453 406 689 b 338 756 378 756 358 757 b 19 639 235 746 47 685 b 13 433 15 568 13 500 b 57 -49 13 206 39 11 b 375 39 133 -67 354 1 b 363 274 365 101 363 182 l 363 339 b 564 -4 410 218 533 13 z "},"O":{"ha":744,"x_min":0,"x_max":0,"o":"m 818 456 b 819 501 818 471 819 486 b 501 850 819 689 693 850 b 463 847 489 850 475 849 b -12 347 228 818 13 581 b -15 300 -14 331 -15 315 b 306 -53 -15 108 110 -53 b 346 -50 318 -53 332 -51 b 818 456 592 -21 794 239 z m 518 356 b 435 226 514 314 492 232 b 347 374 368 218 342 304 b 443 496 354 431 386 492 b 518 356 511 504 524 404 z "},"P":{"ha":735,"x_min":0,"x_max":0,"o":"m 394 31 b 385 181 392 75 386 125 b 497 215 454 199 476 206 b 813 600 721 306 800 490 b 797 718 818 642 811 682 b 542 860 758 818 653 860 b 33 735 368 860 192 815 b 28 597 29 699 28 651 b 104 -61 28 364 65 7 b 136 -62 106 -65 118 -67 b 394 31 206 -54 363 -7 z m 514 479 b 385 332 525 393 426 347 b 393 506 385 385 389 443 b 451 529 413 518 432 526 b 514 479 481 532 508 519 z "},"Q":{"ha":757,"x_min":0,"x_max":0,"o":"m 817 456 b 818 506 818 472 818 489 b 508 847 818 689 696 847 b 468 844 494 847 481 846 b -11 346 231 818 18 610 b -15 293 -14 329 -15 310 b 296 -50 -15 106 104 -50 b 339 -47 310 -50 325 -49 b 428 -26 368 -44 399 -36 b 706 -156 501 -99 611 -156 b 760 -146 724 -156 743 -153 b 868 6 829 -119 860 -57 b 860 110 871 42 868 78 b 797 74 839 89 818 81 b 724 61 774 67 749 61 b 610 83 686 61 647 68 b 817 456 722 185 800 328 z m 518 326 b 431 197 513 283 489 204 b 346 343 364 189 339 272 b 443 467 354 399 386 460 b 518 326 513 474 522 375 z "},"R":{"ha":769,"x_min":0,"x_max":0,"o":"m 819 240 b 750 222 804 228 779 222 b 603 261 693 221 626 240 b 846 603 753 369 832 486 b 518 865 869 804 678 865 b 36 718 369 865 157 810 b 26 557 29 682 26 625 b 97 -61 26 342 58 17 b 386 46 147 -74 363 0 b 379 165 381 83 381 124 b 689 25 425 118 581 -4 b 822 206 768 47 815 143 b 819 240 824 218 822 231 z m 388 506 b 476 526 418 518 449 526 b 531 469 511 526 535 506 b 386 344 524 417 453 374 b 383 410 385 369 383 392 b 388 506 383 443 386 472 z "},"S":{"ha":733,"x_min":0,"x_max":0,"o":"m 71 44 b 263 -69 71 -50 196 -69 b 786 276 457 -69 757 78 b 786 313 788 289 788 300 b 592 435 781 394 694 431 b 543 436 575 436 560 436 b 403 432 490 436 438 432 b 363 446 383 432 361 432 b 413 483 365 468 399 479 b 621 519 468 506 551 519 b 726 504 665 519 704 515 b 800 688 757 524 792 610 b 803 725 801 700 803 713 b 771 822 803 768 793 810 b 608 863 724 851 668 863 b 0 463 328 863 28 693 b 194 239 -15 329 82 257 b 71 44 126 200 71 122 z m 286 231 b 463 239 365 231 426 239 b 499 222 488 239 500 233 b 343 165 493 183 386 164 b 235 232 304 165 233 171 b 286 231 251 231 268 231 z "},"T":{"ha":778,"x_min":0,"x_max":0,"o":"m 42 318 l 231 372 b 264 -46 231 186 250 28 b 557 47 325 -57 540 8 b 590 463 557 126 569 310 b 804 497 668 479 743 492 b 878 783 856 588 878 688 b 844 874 879 829 871 865 b 43 668 618 871 131 728 b 19 583 31 649 25 618 b 14 486 17 554 14 519 b 42 318 14 404 25 326 z "},"U":{"ha":789,"x_min":0,"x_max":0,"o":"m 842 881 b 799 879 831 882 814 881 b 465 778 701 869 538 824 b 481 508 476 692 481 597 b 474 349 481 451 479 397 b 410 158 463 243 440 168 b 368 319 381 149 368 219 b 381 528 368 382 372 456 b 415 753 389 608 401 688 b 26 608 281 738 64 654 b 6 481 18 563 11 522 b -1 349 1 433 -1 390 b 294 -57 -1 81 99 -57 b 356 -53 315 -57 336 -56 b 860 526 676 -12 828 239 b 867 640 864 564 867 601 b 842 881 867 719 857 801 z "},"V":{"ha":829,"x_min":0,"x_max":0,"o":"m 365 757 b 7 581 269 760 31 657 b 325 -57 36 314 222 40 b 564 15 383 -53 528 -19 b 942 785 653 154 857 508 b 682 860 936 840 793 860 b 606 856 656 860 628 858 b 556 843 582 853 565 849 b 554 776 556 821 556 800 b 442 278 543 625 490 414 b 365 757 403 428 360 636 z "},"W":{"ha":1092,"x_min":0,"x_max":0,"o":"m 958 56 b 1224 839 1031 157 1206 643 b 1147 875 1219 853 1189 867 b 972 892 1099 886 1032 892 b 800 856 882 892 804 879 b 804 756 803 835 804 796 b 801 606 804 701 803 643 b 797 518 801 576 800 547 b 775 318 793 450 788 382 b 675 692 725 433 693 571 b 529 635 649 707 539 663 l 422 293 b 414 443 417 343 414 393 b 418 592 414 493 417 543 b 429 779 422 656 428 717 b 243 733 407 803 274 746 b 18 593 142 690 33 631 b 215 -57 18 396 149 -4 b 478 33 268 -71 447 0 b 583 260 478 33 531 154 b 706 1 619 153 660 54 b 754 -4 718 -3 735 -6 b 958 56 829 -1 943 42 z "},"X":{"ha":842,"x_min":0,"x_max":0,"o":"m 22 6 b 114 -87 11 -56 79 -93 b 382 122 175 -54 274 24 b 603 15 464 69 543 31 b 851 244 682 6 849 144 b 788 263 825 242 806 254 b 643 381 732 297 685 336 b 940 775 797 544 928 706 b 732 888 950 843 821 888 b 686 882 717 888 699 886 b 610 724 693 849 628 756 b 501 563 578 675 543 621 b 394 811 443 661 406 756 b 1 471 283 818 36 617 b 235 224 8 418 113 318 b 22 6 144 121 64 38 z "},"Y":{"ha":811,"x_min":0,"x_max":0,"o":"m 275 190 b 153 26 218 111 204 96 b 368 -69 143 -4 267 -69 b 456 -44 401 -69 432 -61 b 931 772 599 83 856 474 b 631 881 946 826 750 881 b 543 857 586 881 554 874 b 436 453 532 733 492 592 b 354 803 378 513 350 704 b 28 563 297 828 43 661 b 281 200 47 431 172 238 z "},"Z":{"ha":726,"x_min":0,"x_max":0,"o":"m 260 182 b 774 501 396 294 621 411 b 810 656 797 550 804 606 b 817 757 814 689 817 724 b 790 885 817 818 808 872 b 47 731 590 892 178 796 b 21 619 35 706 26 668 b 15 522 18 589 15 556 b 44 381 15 457 24 399 b 369 474 135 406 281 457 b -26 92 190 339 6 183 b -33 33 -32 74 -33 54 b -12 -57 -33 -4 -25 -42 b 40 -62 -7 -65 18 -69 b 711 64 188 -17 579 56 b 724 131 717 74 722 118 b 689 243 731 181 711 239 b 260 182 558 232 342 201 z "},"[":{"ha":603,"x_min":0,"x_max":0,"o":"m 117 786 b 110 750 114 775 111 764 b 101 571 104 699 101 638 b 188 -156 101 293 147 -69 b 600 -37 351 -99 461 -71 b 607 10 606 -32 607 -10 b 596 54 607 31 606 50 b 489 31 563 51 528 42 b 461 488 475 100 461 304 b 471 710 461 571 465 650 b 478 749 474 724 476 736 b 581 775 524 765 568 771 b 589 831 585 789 589 810 b 572 879 589 853 585 874 b 533 876 563 879 549 878 b 117 786 424 865 204 818 z "},"\\":{"ha":582,"x_min":0,"x_max":0,"o":"m 515 3 b 519 93 518 21 519 53 b 424 888 519 313 468 793 b 371 888 408 890 392 890 b 97 732 272 869 118 788 b 372 -49 179 626 331 215 b 411 -51 381 -54 393 -54 b 515 3 450 -44 504 -24 z "},"]":{"ha":611,"x_min":0,"x_max":0,"o":"m 540 28 b 593 378 560 133 579 256 b 618 856 613 535 618 717 b 617 982 618 904 618 947 b 118 831 443 958 186 872 b 114 789 115 818 114 804 b 122 733 114 768 117 746 b 207 760 154 744 181 753 b 243 197 226 682 243 383 b 240 79 243 147 243 106 b 138 53 189 71 163 61 b 133 6 135 36 133 19 b 143 -50 133 -15 138 -33 b 443 13 221 -25 338 -1 z "},"_":{"ha":815,"x_min":0,"x_max":0,"o":"m 64 -8 b 742 146 233 44 561 128 b 792 151 761 149 776 151 b 818 208 806 157 815 181 b 800 283 821 242 818 274 l 764 283 b 433 264 682 283 558 278 b 78 199 306 250 172 231 b 39 60 47 163 39 103 b 64 -8 39 25 46 -3 z "},"a":{"ha":785,"x_min":0,"x_max":0,"o":"m 226 714 b -56 -11 172 618 15 286 b 158 -58 -43 -42 72 -58 b 246 -47 199 -58 231 -56 b 278 88 247 -17 260 33 b 525 171 346 117 463 160 b 563 1 542 114 557 49 b 860 156 657 11 840 107 b 597 856 825 418 692 710 b 531 853 581 858 554 856 b 226 714 431 839 268 769 z m 349 276 b 425 433 376 344 406 401 b 481 318 443 406 461 368 b 349 276 443 310 393 293 z "},"b":{"ha":743,"x_min":0,"x_max":0,"o":"m 664 399 b 825 653 754 469 815 567 b 797 789 832 714 818 756 b 589 874 760 843 690 874 b 486 865 557 874 525 871 b 33 706 375 849 161 785 b 10 354 18 631 10 493 b 64 -67 10 154 26 -49 b 271 -44 140 -61 206 -56 b 731 256 606 11 711 154 b 664 399 740 317 715 375 z m 499 531 b 347 422 483 482 386 436 b 356 556 349 447 347 508 b 433 574 381 564 408 569 b 499 531 481 579 511 571 z m 464 271 b 350 179 475 240 424 201 b 347 268 347 188 346 243 b 413 288 372 281 396 286 b 464 271 442 292 458 283 z "},"c":{"ha":731,"x_min":0,"x_max":0,"o":"m 660 224 b 464 154 592 178 531 154 b 344 274 375 154 338 210 b 664 528 361 411 546 528 b 715 518 682 528 701 525 b 740 603 726 533 735 565 b 743 657 743 619 743 639 b 653 856 743 746 719 844 b 599 858 635 857 617 858 b -10 294 333 858 15 572 b -12 247 -11 279 -12 263 b 290 -56 -12 49 118 -56 b 326 -54 301 -56 314 -56 b 718 128 476 -43 622 36 b 660 224 732 156 696 226 z "},"d":{"ha":724,"x_min":0,"x_max":0,"o":"m 797 511 b 507 857 803 606 774 857 b 433 851 485 857 460 856 b 49 718 344 839 197 801 b 40 657 44 700 43 681 b 19 272 29 560 19 413 b 44 -49 19 146 26 24 b 110 -54 65 -53 88 -54 b 185 -50 135 -54 160 -53 b 789 433 539 -10 743 197 b 797 511 793 460 797 485 z m 514 344 b 363 206 501 278 446 224 b 357 297 360 232 357 263 b 367 418 357 332 360 371 b 435 446 390 432 410 443 b 514 344 503 454 526 413 z "},"e":{"ha":718,"x_min":0,"x_max":0,"o":"m 49 -57 b 696 106 285 -32 493 17 b 717 163 706 114 714 136 b 693 271 721 207 715 264 b 356 185 569 225 463 203 b 354 256 354 200 354 225 b 642 310 432 281 557 304 b 658 354 651 319 657 338 b 640 463 667 389 664 433 b 358 404 625 471 439 431 b 367 474 363 431 364 456 b 761 543 533 517 663 532 b 818 725 786 575 808 651 b 821 794 819 749 821 772 b 788 900 821 851 811 894 b 39 693 535 890 74 729 b 24 625 32 681 28 657 b 10 317 15 550 10 432 b 49 -57 10 132 22 -47 z "},"f":{"ha":717,"x_min":0,"x_max":0,"o":"m 94 -54 b 426 61 182 -49 390 13 b 408 261 417 122 411 189 b 614 306 481 285 556 299 l 647 308 b 664 397 657 329 664 365 b 643 467 664 429 657 456 b 408 417 560 457 469 433 b 411 486 408 439 408 464 b 761 531 493 506 638 522 b 811 694 781 556 799 625 b 826 847 821 747 826 799 b 818 900 826 872 824 892 b 778 901 806 901 792 901 b 42 726 574 901 181 800 b 33 681 38 713 36 696 b 25 508 28 631 25 571 b 94 -54 25 286 57 17 z "},"g":{"ha":772,"x_min":0,"x_max":0,"o":"m 719 839 b 601 867 685 858 646 867 b 542 864 586 867 557 867 b -11 324 313 839 24 628 b -14 271 -14 306 -14 289 b 306 -57 -14 74 122 -57 b 815 332 528 -57 815 117 b 681 453 815 413 758 453 b 411 336 572 453 461 393 b 458 206 403 306 429 210 b 582 251 485 233 588 286 b 414 146 578 201 493 146 b 326 257 368 146 326 189 b 333 310 326 274 329 292 b 581 513 365 431 493 499 b 626 515 596 514 611 515 b 743 482 668 515 711 507 b 779 603 757 500 772 549 b 782 665 781 622 782 643 b 719 839 782 739 767 811 z "},"h":{"ha":826,"x_min":0,"x_max":0,"o":"m 31 672 l 31 560 b 81 -61 31 382 36 64 b 406 42 107 -85 396 -1 b 386 240 396 92 392 161 b 508 272 424 249 468 260 b 493 42 506 186 501 106 l 488 0 b 808 106 500 -33 779 56 b 875 507 833 204 857 356 b 910 926 896 683 911 856 b 858 929 897 931 881 931 b 492 792 750 915 536 844 b 513 428 506 729 514 586 b 385 394 474 414 431 403 b 396 771 385 547 390 693 b 342 771 385 775 367 774 b 31 672 247 761 68 718 z "},"i":{"ha":404,"x_min":0,"x_max":0,"o":"m 14 524 b 8 382 10 475 8 428 b 61 -44 8 182 40 29 b 99 -50 69 -49 82 -50 b 367 43 185 -50 354 0 b 383 263 365 89 372 172 b 407 440 390 321 399 383 b 454 656 422 529 440 611 b 397 667 440 663 419 667 b 14 524 268 667 33 572 z m 83 843 b 201 701 74 757 111 700 b 531 978 340 701 513 835 b 411 1129 540 1065 501 1129 b 83 843 268 1129 101 989 z "},"j":{"ha":768,"x_min":0,"x_max":0,"o":"m 797 521 b 857 690 818 528 847 601 b 863 764 860 715 863 740 b 831 869 863 817 854 860 b 46 683 569 868 167 757 b 17 592 31 668 21 632 b 13 519 14 568 13 543 b 56 364 13 442 28 369 l 238 417 b 267 239 265 367 271 292 b 169 68 258 156 243 93 b 110 58 154 63 132 58 b 68 63 96 58 82 60 b 32 -56 49 43 25 -36 b 190 -82 67 -74 118 -82 b 654 318 389 -82 622 75 b 660 397 657 343 660 369 b 643 503 660 432 656 468 l 643 504 b 797 521 699 513 751 518 z "},"k":{"ha":750,"x_min":0,"x_max":0,"o":"m 408 643 l 428 785 b 25 631 388 813 40 699 b 21 518 22 603 21 563 b 71 -47 21 329 42 38 b 147 -58 83 -56 113 -58 b 193 -57 163 -58 178 -57 b 379 -8 268 -50 350 -29 b 375 121 375 29 374 74 b 665 38 478 72 592 32 b 793 224 756 67 806 185 b 763 215 782 218 772 217 b 553 281 718 210 618 247 l 550 283 b 881 694 632 407 743 547 b 618 908 881 754 708 933 b 394 522 546 826 458 660 z "},"l":{"ha":643,"x_min":0,"x_max":0,"o":"m 692 289 b 417 176 604 246 507 208 b 411 275 413 206 411 239 b 431 539 411 354 418 443 l 438 607 b 471 839 447 686 460 765 b 422 846 458 843 442 846 b 376 843 407 846 393 844 b 43 715 247 826 81 754 b 25 388 31 621 25 506 b 26 303 25 358 25 331 b 110 -65 32 142 76 -50 b 149 -61 119 -65 132 -62 b 693 122 268 -46 507 24 b 718 176 707 135 715 156 b 692 289 725 226 706 282 z "},"m":{"ha":972,"x_min":0,"x_max":0,"o":"m 556 132 b 669 381 592 175 633 271 b 649 122 668 294 658 206 l 643 76 b 631 -3 640 49 638 22 b 943 118 668 -17 906 53 b 1056 657 981 226 1029 464 b 1074 858 1067 740 1074 808 b 1067 924 1074 886 1071 908 b 1022 929 1056 931 1043 931 b 656 790 915 919 678 835 b 532 382 622 660 581 521 b 438 781 476 510 463 651 l 436 778 b 21 618 332 774 93 690 b 14 500 17 596 14 554 b 68 -42 14 319 39 17 b 125 -49 81 -46 101 -49 b 351 4 201 -49 314 -24 b 347 104 349 31 347 64 b 361 335 347 168 351 249 b 433 103 381 239 411 156 b 468 101 446 100 457 100 b 556 132 497 104 529 117 z "},"n":{"ha":838,"x_min":0,"x_max":0,"o":"m 564 -4 b 839 111 597 -15 804 57 b 911 629 857 186 886 421 b 929 868 921 707 931 808 b 843 893 918 885 886 893 b 528 807 739 893 606 858 b 554 331 531 757 553 546 b 388 753 479 453 406 689 b 338 756 378 756 358 757 b 19 639 235 746 47 685 b 13 433 15 568 13 500 b 57 -49 13 206 39 11 b 375 39 133 -67 354 1 b 363 274 365 101 363 182 l 363 339 b 564 -4 410 218 533 13 z "},"o":{"ha":744,"x_min":0,"x_max":0,"o":"m 817 456 b 818 506 818 472 818 489 b 508 847 818 689 696 847 b 468 844 494 847 481 846 b -11 346 231 818 18 610 b -15 293 -14 329 -15 310 b 296 -50 -15 106 104 -50 b 339 -47 310 -50 325 -49 b 817 456 585 -19 790 239 z m 518 326 b 431 197 513 283 489 204 b 346 343 364 189 339 272 b 443 467 354 399 386 460 b 518 326 513 474 522 375 z "},"p":{"ha":735,"x_min":0,"x_max":0,"o":"m 394 31 b 385 181 392 75 386 125 b 497 215 454 199 476 206 b 813 600 721 306 800 490 b 797 718 818 642 811 682 b 542 860 758 818 653 860 b 33 735 368 860 192 815 b 28 597 29 699 28 651 b 104 -61 28 364 65 7 b 136 -62 106 -65 118 -67 b 394 31 206 -54 363 -7 z m 514 479 b 385 332 525 393 426 347 b 393 506 385 385 389 443 b 451 529 413 518 432 526 b 514 479 481 532 508 519 z "},"q":{"ha":757,"x_min":0,"x_max":0,"o":"m 817 456 b 818 506 818 472 818 489 b 508 847 818 689 696 847 b 468 844 494 847 481 846 b -11 346 231 818 18 610 b -15 293 -14 329 -15 310 b 296 -50 -15 106 104 -50 b 339 -47 310 -50 325 -49 b 428 -26 368 -44 399 -36 b 706 -156 501 -99 611 -156 b 760 -146 724 -156 743 -153 b 868 6 829 -119 860 -57 b 860 110 871 42 868 78 b 797 74 839 89 818 81 b 724 61 774 67 749 61 b 610 83 686 61 647 68 b 817 456 722 185 800 328 z m 518 326 b 431 197 513 283 489 204 b 346 343 364 189 339 272 b 443 467 354 399 386 460 b 518 326 513 474 522 375 z "},"r":{"ha":769,"x_min":0,"x_max":0,"o":"m 819 240 b 750 222 804 228 779 222 b 603 261 693 221 626 240 b 846 603 753 369 832 486 b 518 865 869 804 678 865 b 36 718 369 865 157 810 b 26 557 29 682 26 625 b 97 -61 26 342 58 17 b 386 46 147 -74 363 0 b 379 165 381 83 381 124 b 689 25 425 118 581 -4 b 822 206 768 47 815 143 b 819 240 824 218 822 231 z m 388 506 b 476 526 418 518 449 526 b 531 469 511 526 535 506 b 386 344 524 417 453 374 b 383 410 385 369 383 392 b 388 506 383 443 386 472 z "},"s":{"ha":733,"x_min":0,"x_max":0,"o":"m 71 44 b 263 -69 71 -50 196 -69 b 786 276 457 -69 757 78 b 786 313 788 289 788 300 b 592 435 781 394 694 431 b 543 436 575 436 560 436 b 403 432 490 436 438 432 b 363 446 383 432 361 432 b 413 483 365 468 399 479 b 621 519 468 506 551 519 b 726 504 665 519 704 515 b 800 688 757 524 792 610 b 803 725 801 700 803 713 b 771 822 803 768 793 810 b 608 863 724 851 668 863 b 0 463 328 863 28 693 b 194 239 -15 329 82 257 b 71 44 126 200 71 122 z m 286 231 b 463 239 365 231 426 239 b 499 222 488 239 500 233 b 343 165 493 183 386 164 b 235 232 304 165 233 171 b 286 231 251 231 268 231 z "},"t":{"ha":778,"x_min":0,"x_max":0,"o":"m 42 318 l 231 372 b 264 -46 231 186 250 28 b 557 47 325 -57 540 8 b 590 463 557 126 569 310 b 804 497 668 479 743 492 b 878 783 856 588 878 688 b 844 874 879 829 871 865 b 43 668 618 871 131 728 b 19 583 31 649 25 618 b 14 486 17 554 14 519 b 42 318 14 404 25 326 z "},"u":{"ha":789,"x_min":0,"x_max":0,"o":"m 842 881 b 799 879 831 882 814 881 b 465 778 701 869 538 824 b 481 508 476 692 481 597 b 474 349 481 451 479 397 b 410 158 463 243 440 168 b 368 319 381 149 368 219 b 381 528 368 382 372 456 b 415 753 389 608 401 688 b 26 608 281 738 64 654 b 6 481 18 563 11 522 b -1 349 1 433 -1 390 b 294 -57 -1 81 99 -57 b 356 -53 315 -57 336 -56 b 860 526 676 -12 828 239 b 867 640 864 564 867 601 b 842 881 867 719 857 801 z "},"v":{"ha":829,"x_min":0,"x_max":0,"o":"m 365 757 b 7 581 269 760 31 657 b 325 -57 36 314 222 40 b 564 15 383 -53 528 -19 b 942 785 653 154 857 508 b 682 860 936 840 793 860 b 606 856 656 860 628 858 b 556 843 582 853 565 849 b 554 776 556 821 556 800 b 442 278 543 625 490 414 b 365 757 403 428 360 636 z "},"w":{"ha":1092,"x_min":0,"x_max":0,"o":"m 958 56 b 1224 839 1031 157 1206 643 b 1147 875 1219 853 1189 867 b 972 892 1099 886 1032 892 b 800 856 882 892 804 879 b 804 756 803 835 804 796 b 801 606 804 701 803 643 b 797 518 801 576 800 547 b 775 318 793 450 788 382 b 675 692 725 433 693 571 b 529 635 649 707 539 663 l 422 293 b 414 443 417 343 414 393 b 418 592 414 493 417 543 b 429 779 422 656 428 717 b 243 733 407 803 274 746 b 18 593 142 690 33 631 b 215 -57 18 396 149 -4 b 478 33 268 -71 447 0 b 583 260 478 33 531 154 b 706 1 619 153 660 54 b 754 -4 718 -3 735 -6 b 958 56 829 -1 943 42 z "},"x":{"ha":842,"x_min":0,"x_max":0,"o":"m 22 6 b 114 -87 11 -56 79 -93 b 382 122 175 -54 274 24 b 603 15 464 69 543 31 b 851 244 682 6 849 144 b 788 263 825 242 806 254 b 643 381 732 297 685 336 b 940 775 797 544 928 706 b 732 888 950 843 821 888 b 686 882 717 888 699 886 b 610 724 693 849 628 756 b 501 563 578 675 543 621 b 394 811 443 661 406 756 b 1 471 283 818 36 617 b 235 224 8 418 113 318 b 22 6 144 121 64 38 z "},"y":{"ha":811,"x_min":0,"x_max":0,"o":"m 275 190 b 153 26 218 111 204 96 b 368 -69 143 -4 267 -69 b 456 -44 401 -69 432 -61 b 931 772 599 83 856 474 b 631 881 946 826 750 881 b 543 857 586 881 554 874 b 436 453 532 733 492 592 b 354 803 378 513 350 704 b 28 563 297 828 43 661 b 281 200 47 431 172 238 z "},"z":{"ha":726,"x_min":0,"x_max":0,"o":"m 790 885 b 47 731 590 892 178 796 b 21 619 35 706 26 668 b 15 522 18 589 15 556 b 44 381 15 457 24 399 b 369 474 135 406 281 457 b -26 92 190 339 6 183 b -33 38 -32 75 -33 56 b -12 -57 -33 -1 -24 -40 b 40 -62 -1 -60 17 -62 b 714 93 200 -62 607 15 b 724 131 718 104 722 118 b 689 243 731 181 711 239 b 260 182 565 217 397 190 b 774 501 396 294 621 411 b 810 656 797 550 804 606 b 817 757 814 689 817 724 b 790 885 817 818 808 872 z "},"{":{"ha":631,"x_min":0,"x_max":0,"o":"m 75 193 b 200 -65 239 221 144 33 b 343 -147 229 -112 268 -147 b 585 -60 428 -147 517 -111 b 578 -6 593 -44 589 -10 b 474 100 493 -24 474 35 b 481 193 474 132 478 167 b 483 229 482 206 483 217 b 393 336 483 289 463 338 b 556 525 490 375 544 435 b 543 717 564 594 535 643 b 663 854 549 764 557 813 b 668 893 665 858 668 876 b 658 931 668 908 665 925 b 138 561 443 890 168 814 b 161 374 129 483 168 428 b 51 274 157 336 132 306 b 75 193 47 254 61 196 z "},"|":{"ha":339,"x_min":0,"x_max":0,"o":"m 311 -29 b 300 268 304 33 300 143 b 326 992 300 510 313 818 b 286 997 317 994 304 997 b 163 960 247 997 171 982 b 143 281 151 828 143 531 b 151 -62 143 135 146 6 b 311 -29 178 -76 293 -50 z "},"}":{"ha":719,"x_min":0,"x_max":0,"o":"m 682 588 b 640 582 665 583 651 582 b 606 618 613 582 604 593 b 643 775 606 657 635 713 b 460 969 657 897 568 969 b 111 851 336 969 211 921 b 119 779 101 831 111 781 b 167 788 138 785 154 788 b 219 700 211 788 224 753 b 201 565 217 644 206 604 b 289 422 193 494 215 422 b 340 429 304 422 319 424 b 250 297 281 393 256 346 b 260 122 243 235 268 181 b 139 -19 254 58 218 -1 b 139 -89 132 -31 129 -81 b 221 -78 168 -86 196 -83 b 581 244 421 -32 561 75 b 575 390 588 303 569 346 b 718 515 583 465 661 489 b 682 588 731 539 701 583 z "},"¡":{"ha":497,"x_min":0,"x_max":0,"o":"m 46 -79 b 94 -87 57 -85 75 -87 b 133 -85 107 -87 119 -86 b 460 40 250 -69 429 0 b 382 497 426 140 381 374 b 349 501 381 503 369 504 b 157 435 292 493 169 457 b 53 1 122 332 69 132 b 46 -79 49 -31 47 -57 z m 118 633 b 243 517 106 554 151 504 b 279 522 256 518 267 518 b 486 735 396 556 474 647 b 363 868 497 819 456 882 b 329 863 351 868 340 865 b 118 633 215 831 131 725 z "},"¢":{"ha":722,"x_min":0,"x_max":0,"o":"m 619 393 b 458 257 579 331 518 269 b 378 332 396 244 372 282 b 493 463 383 393 439 449 b 578 457 517 467 547 468 b 736 703 643 499 731 658 b 518 815 700 774 631 822 l 521 958 b 326 903 496 978 347 936 l 329 753 b 68 343 190 667 85 504 b 318 53 54 181 146 35 l 324 53 l 321 -99 b 504 -36 335 -118 492 -74 l 506 122 b 667 293 569 164 622 221 b 619 393 683 338 658 399 z "},"£":{"ha":881,"x_min":0,"x_max":0,"o":"m 847 826 b 626 882 790 867 708 882 b 579 881 610 882 594 882 b 129 493 367 861 151 731 b 128 458 128 481 128 469 b 143 383 128 431 135 407 b 39 360 103 376 68 367 b 22 321 31 354 24 339 b 68 219 18 282 39 235 b 214 254 115 232 164 243 b 228 165 224 229 231 199 b 56 44 218 92 144 60 b 31 -32 42 22 33 -7 b 43 -103 29 -61 31 -92 b 590 -24 231 -54 415 -24 b 717 -32 651 -24 681 -33 b 885 153 817 -25 879 65 b 853 307 890 203 875 271 b 642 264 768 306 671 279 b 450 110 635 142 547 122 b 531 306 497 161 519 235 b 769 329 619 317 704 322 b 781 368 776 339 781 354 b 746 478 785 411 768 463 b 531 451 675 471 601 463 l 529 468 b 585 567 521 513 540 557 b 668 531 624 574 664 544 b 847 826 726 557 839 772 z "},"¥":{"ha":904,"x_min":0,"x_max":0,"o":"m 217 129 b 326 169 253 143 289 157 b 319 18 322 115 319 63 b 321 -36 319 -1 319 -19 b 382 -43 329 -44 351 -44 b 660 51 471 -33 625 11 b 640 267 650 81 640 168 b 822 307 700 282 761 294 b 767 443 836 350 817 418 l 688 426 b 986 765 811 544 949 686 b 768 890 967 838 854 890 b 719 882 751 890 733 888 b 488 511 699 825 596 656 b 357 813 433 589 382 688 b 60 547 224 767 89 621 b 294 314 101 436 204 363 l 156 265 b 217 129 146 219 181 146 z "},"§":{"ha":786,"x_min":0,"x_max":0,"o":"m 104 238 b 210 101 103 167 151 124 b 63 -97 139 68 53 -18 b 281 -217 74 -190 211 -217 b 763 75 471 -217 722 -139 b 731 214 772 126 757 175 b 806 363 775 256 806 306 b 576 539 806 506 675 539 b 439 528 522 539 472 529 b 413 543 418 528 413 532 b 596 589 415 578 519 589 b 696 563 633 589 669 583 b 775 794 735 599 774 719 b 772 831 776 808 776 821 b 558 894 731 872 651 894 b 50 565 349 896 78 790 b 171 381 39 469 104 397 b 104 238 132 336 106 290 z m 329 81 b 490 82 415 81 492 111 b 357 32 489 39 376 32 b 243 92 293 32 235 46 b 329 81 272 83 303 81 z m 425 292 b 349 318 385 292 349 296 b 404 343 349 339 392 343 l 442 343 b 524 314 479 343 525 340 b 425 292 522 286 444 292 z "},"¤":{"ha":872,"x_min":0,"x_max":0,"o":"m 104 363 b 138 189 100 297 111 239 b 4 -26 101 140 54 68 b 99 -76 31 -54 65 -68 b 249 79 144 -24 201 36 b 392 54 289 60 336 51 b 614 126 469 61 543 82 b 779 67 671 93 736 71 b 882 172 831 96 857 132 b 756 285 843 200 793 229 b 810 472 788 343 806 407 b 753 683 815 556 793 631 b 889 889 804 771 849 836 b 815 965 881 932 856 967 b 611 772 765 931 668 829 b 518 781 582 779 551 781 b 332 731 451 781 388 761 b 242 815 303 753 272 779 b 124 719 201 796 161 768 b 181 594 142 668 161 626 b 104 363 135 526 107 444 z m 399 360 b 465 486 403 425 428 481 b 518 379 503 493 521 444 b 451 251 514 314 489 257 b 399 360 415 246 393 294 z "},"'":{"ha":419,"x_min":0,"x_max":0,"o":"m 139 844 b 138 796 138 829 138 814 b 199 464 138 667 168 508 b 381 532 229 457 324 492 b 481 942 394 646 418 760 b 425 943 469 946 450 947 b 139 844 336 933 181 885 z "},"¶":{"ha":903,"x_min":0,"x_max":0,"o":"m 919 899 b 890 897 911 899 901 899 b 69 326 556 876 113 625 b 281 119 56 210 139 106 b 381 146 311 124 346 131 b 406 -53 379 86 393 -32 b 443 -57 413 -58 425 -57 b 669 13 511 -51 643 -11 b 693 478 669 128 671 296 b 736 756 703 565 717 657 b 786 768 749 757 757 761 b 753 528 774 690 763 608 b 721 26 731 344 724 158 b 832 56 743 13 815 33 b 861 538 836 190 843 360 b 919 899 875 653 892 772 z "},"‰":{"ha":1842,"x_min":0,"x_max":0,"o":"m 483 -86 b 722 306 526 3 618 153 b 692 175 706 261 693 218 b 864 -46 682 44 753 -46 b 1172 125 981 -46 1093 26 b 1339 -10 1193 43 1254 -10 b 1757 410 1546 -10 1733 213 b 1758 428 1757 417 1758 421 b 1585 644 1768 557 1694 644 b 1278 476 1468 644 1356 574 b 1111 608 1256 557 1194 608 b 876 515 1026 608 944 571 b 1118 781 963 625 1047 722 b 899 890 1106 839 989 893 b 836 871 874 890 854 883 b 626 538 799 829 693 657 l 614 517 b 622 563 618 531 619 546 b 453 796 638 692 567 796 b 36 389 247 796 64 583 b 33 346 33 374 33 360 b 210 139 33 222 106 139 b 511 308 325 139 433 211 b 371 -46 435 147 374 -7 b 483 -86 365 -74 438 -103 z m 1417 276 b 1468 339 1419 306 1436 339 b 1507 261 1506 339 1511 288 b 1451 193 1504 231 1483 193 b 1417 276 1410 193 1413 250 z m 281 429 b 332 490 285 458 301 490 b 374 414 369 490 376 439 b 317 344 369 382 349 344 b 281 429 275 344 279 401 z m 942 242 b 993 303 944 269 961 303 b 1033 225 1031 303 1036 251 b 976 157 1031 194 1008 157 b 942 242 935 157 939 214 z "},"¿":{"ha":860,"x_min":0,"x_max":0,"o":"m 621 482 b 610 629 624 514 621 610 b 339 546 581 644 371 569 b 335 486 340 521 340 501 b 38 147 200 415 57 301 b 269 -61 26 15 139 -61 b 851 176 449 -61 706 22 b 735 463 875 225 794 443 b 449 300 656 386 514 300 b 422 325 426 300 421 314 b 621 482 428 372 575 472 z m 658 849 b 538 958 669 922 629 972 l 504 951 b 304 753 390 921 318 835 b 396 622 293 681 322 622 b 450 631 413 622 429 625 b 658 849 558 663 644 763 z "},"`":{"ha":556,"x_min":0,"x_max":0,"o":"m 133 899 b 189 900 153 899 169 900 b 513 871 313 900 432 889 b 590 1006 543 893 593 975 b 293 1163 540 1050 422 1131 b 133 899 221 1131 110 931 z "},"´":{"ha":585,"x_min":0,"x_max":0,"o":"m 488 1172 b 221 906 406 1118 282 997 b 293 803 211 883 250 817 b 635 981 411 893 536 931 b 488 1172 658 1032 538 1193 z "},"ˆ":{"ha":624,"x_min":0,"x_max":0,"o":"m 511 1176 b 335 1092 443 1156 371 1118 b 114 782 275 999 156 840 b 189 775 132 778 158 775 b 289 783 221 775 257 778 b 340 799 308 786 325 792 b 426 918 363 828 396 868 b 524 864 449 894 492 871 b 764 988 596 878 719 946 b 511 1176 685 1026 585 1088 z "},"˜":{"ha":624,"x_min":0,"x_max":0,"o":"m 331 1124 b 122 988 242 1118 156 1038 b 236 785 104 931 174 799 b 399 888 278 832 343 883 b 436 889 411 889 424 889 b 565 888 483 889 532 885 b 785 1081 658 897 776 1013 b 735 1197 790 1131 764 1181 b 543 1079 701 1158 649 1092 b 331 1124 475 1072 406 1128 z "},"¨":{"ha":681,"x_min":0,"x_max":0,"o":"m 146 918 b 243 807 139 853 172 807 b 461 953 331 807 429 868 b 557 882 469 910 503 882 b 785 1068 660 882 772 963 b 689 1193 793 1139 761 1193 b 471 1035 599 1193 504 1119 b 375 1118 464 1083 432 1118 b 146 918 269 1118 158 1019 z "},"˚":{"ha":624,"x_min":0,"x_max":0,"o":"m 665 1033 b 528 1203 678 1135 621 1203 b 224 929 385 1203 239 1069 b 365 758 213 822 278 758 b 665 1033 506 758 649 894 z m 406 950 b 456 1000 408 979 429 1000 b 482 947 471 1000 488 988 b 432 896 479 919 458 896 b 406 950 408 896 403 928 z "},"¸":{"ha":410,"x_min":0,"x_max":0,"o":"m 121 -143 b 164 -174 147 -146 164 -157 b 144 -208 164 -183 157 -196 b 72 -237 126 -225 97 -233 b 0 -229 43 -242 14 -233 b -12 -267 -6 -237 -10 -251 b -1 -367 -18 -303 -15 -350 b 47 -369 15 -369 31 -369 b 97 -367 63 -369 79 -369 b 411 -132 222 -350 394 -249 b 393 -57 418 -104 410 -78 b 235 -7 364 -26 306 -3 l 217 103 l 35 57 b 74 -153 31 -19 50 -125 b 121 -143 88 -144 106 -143 z "},"ˇ":{"ha":1042,"x_min":0,"x_max":0,"o":"m 367 771 b 543 856 435 793 506 831 b 764 1165 603 949 722 1107 b 689 1172 744 1169 718 1172 b 589 1164 656 1172 619 1169 b 538 1149 568 1161 553 1156 b 451 1029 515 1119 481 1081 b 354 1083 429 1053 386 1076 b 114 960 281 1069 157 1001 b 367 771 193 921 293 860 z "},"Æ":{"ha":1256,"x_min":0,"x_max":0,"o":"m 631 -44 b 1246 69 896 14 1058 50 b 1269 174 1260 85 1269 132 b 1244 247 1269 208 1263 242 b 893 185 1143 242 985 210 b 890 256 890 200 890 225 b 1178 310 968 281 1093 304 b 1194 354 1188 319 1193 338 b 1176 463 1203 389 1200 433 b 894 404 1161 471 975 431 b 903 474 899 431 900 456 b 1297 543 1069 517 1199 532 b 1354 725 1322 575 1344 651 b 1357 794 1356 749 1357 772 b 1324 900 1357 851 1347 894 b 665 736 1131 893 819 797 b 597 856 642 782 618 822 b 531 853 581 858 554 856 b 226 714 431 839 268 769 b -56 -11 172 618 15 286 b 158 -58 -43 -42 72 -58 b 246 -47 199 -58 231 -56 b 278 88 247 -17 260 33 b 525 171 346 117 463 160 b 563 1 542 114 557 49 l 564 1 b 565 -6 564 0 564 -3 b 631 -44 569 -35 607 -47 z m 349 276 b 425 433 376 344 406 401 b 481 318 443 406 461 368 b 349 276 443 310 393 293 z "},"Ø":{"ha":744,"x_min":0,"x_max":0,"o":"m 818 456 b 819 501 818 471 819 486 b 744 729 819 588 793 668 b 904 929 800 806 856 875 b 675 1028 885 983 763 1033 b 615 1007 651 1026 631 1019 b 531 849 593 978 563 919 b 463 847 507 850 485 850 b -12 347 228 818 13 581 b -15 301 -14 331 -15 317 b 156 -15 -15 165 49 43 b 128 -169 136 -86 126 -143 b 243 -204 125 -194 201 -221 b 310 -53 258 -162 281 -110 b 346 -50 321 -53 333 -51 b 818 456 592 -21 794 239 z m 518 356 b 435 226 514 314 492 232 b 347 374 368 218 342 304 b 443 496 354 431 386 492 b 518 356 511 504 524 404 z "},"Œ":{"ha":1260,"x_min":0,"x_max":0,"o":"m 635 -44 b 1251 69 901 14 1064 50 b 1275 174 1265 85 1275 132 b 1250 247 1275 208 1268 242 b 897 185 1147 242 990 210 b 894 256 894 200 894 225 b 1182 310 974 281 1099 304 b 1200 354 1193 319 1199 338 b 1181 463 1207 389 1206 433 b 900 404 1167 471 981 431 b 907 474 904 431 906 456 b 1303 543 1075 517 1204 532 b 1358 725 1328 575 1350 651 b 1363 794 1361 749 1363 772 b 1329 900 1363 851 1353 894 b 722 756 1156 893 888 815 b 500 850 667 814 590 850 b 463 847 488 850 475 849 b -12 347 228 818 13 581 b -15 300 -14 331 -15 315 b 306 -53 -15 108 110 -53 b 346 -50 318 -53 332 -51 b 563 39 424 -40 497 -7 l 569 -6 b 635 -44 575 -35 613 -47 z m 518 356 b 435 226 514 314 492 232 b 347 374 368 218 342 304 b 443 496 354 431 386 492 b 518 356 511 504 524 404 z "},"æ":{"ha":1256,"x_min":0,"x_max":0,"o":"m 585 -57 b 1232 106 821 -32 1031 17 b 1253 163 1242 114 1250 136 b 1229 271 1257 207 1251 264 b 893 185 1106 225 999 203 b 890 256 890 200 890 225 b 1178 310 968 281 1093 304 b 1194 354 1188 319 1193 338 b 1176 463 1203 389 1200 433 b 894 404 1161 471 975 431 b 903 474 899 431 900 456 b 1297 543 1069 517 1199 532 b 1354 725 1322 575 1344 651 b 1357 794 1356 749 1357 772 b 1324 900 1357 851 1347 894 b 665 736 1131 893 819 797 b 597 856 642 782 618 822 b 531 853 581 858 554 856 b 226 714 431 839 268 769 b -56 -11 172 618 15 286 b 158 -58 -43 -42 72 -58 b 246 -47 199 -58 231 -56 b 278 88 247 -17 260 33 b 525 171 346 117 463 160 b 563 1 542 114 557 49 l 564 1 b 585 -57 568 -32 576 -54 z m 349 276 b 425 433 376 344 406 401 b 481 318 443 406 461 368 b 349 276 443 310 393 293 z "},"ø":{"ha":744,"x_min":0,"x_max":0,"o":"m 817 456 b 818 503 818 472 818 488 b 746 731 818 588 793 668 b 904 929 800 807 856 875 b 675 1028 885 983 763 1033 b 615 1007 651 1026 631 1019 b 529 846 593 978 563 918 b 508 847 522 847 515 847 b 468 844 494 847 481 846 b -11 346 231 818 18 610 b -15 293 -14 329 -15 310 b 154 -17 -15 157 47 39 b 128 -169 136 -87 126 -143 b 243 -204 125 -194 201 -221 b 311 -50 258 -162 281 -108 b 339 -47 319 -49 331 -47 b 817 456 585 -19 790 239 z m 518 326 b 431 197 513 283 489 204 b 346 343 364 189 339 272 b 443 467 354 399 386 460 b 518 326 513 474 522 375 z "},"œ":{"ha":1272,"x_min":0,"x_max":0,"o":"m 603 -57 b 1250 106 839 -32 1047 17 b 1269 163 1258 114 1268 136 b 1246 271 1275 207 1268 264 b 910 185 1124 225 1017 203 b 907 256 907 200 907 225 b 1194 310 986 281 1111 304 b 1213 354 1206 319 1211 338 b 1193 463 1219 389 1218 433 b 913 404 1179 471 993 431 b 919 474 917 431 918 456 b 1315 543 1088 517 1217 532 b 1371 725 1340 575 1363 651 b 1375 794 1374 749 1375 772 b 1342 900 1375 851 1365 894 b 726 754 1167 893 892 814 b 508 847 672 811 597 847 b 468 844 494 847 481 846 b -11 346 231 818 18 610 b -15 293 -14 329 -15 310 b 296 -50 -15 106 104 -50 b 339 -47 310 -50 325 -49 b 574 53 424 -37 504 0 b 603 -57 581 -10 589 -53 z m 518 326 b 431 197 513 283 489 204 b 346 343 364 189 339 272 b 443 467 354 399 386 460 b 518 326 513 474 522 375 z "},"ß":{"ha":765,"x_min":0,"x_max":0,"o":"m 539 214 b 485 181 536 189 503 181 b 453 190 474 181 461 185 b 408 81 431 176 397 104 b 572 18 461 33 517 17 b 811 210 675 18 800 106 b 683 388 822 317 682 371 b 819 618 711 414 806 497 b 522 885 843 801 667 886 b 0 372 242 885 31 631 b -6 283 -4 343 -6 314 b 58 -69 -6 140 29 -12 b 92 -74 64 -74 74 -75 b 390 68 175 -62 386 24 b 367 314 376 132 367 228 b 369 400 367 343 368 374 b 421 518 376 464 392 508 b 463 467 453 528 467 500 b 428 357 460 432 431 393 b 539 214 419 289 546 281 z "},"™":{"ha":1188,"x_min":0,"x_max":0,"o":"m 936 464 b 1135 532 975 449 1108 504 b 1215 885 1161 604 1194 743 b 1226 1006 1221 926 1225 965 b 1193 1010 1219 1010 1208 1010 b 957 931 1136 1006 1018 961 b 881 729 936 858 901 767 b 836 933 861 771 838 871 b 668 917 790 936 757 933 b 656 947 668 925 661 949 b 204 803 503 918 290 844 b 181 689 189 778 181 731 b 210 586 181 643 190 599 b 310 617 243 597 278 607 b 307 550 308 594 307 572 b 326 374 307 479 315 406 b 526 426 354 358 508 392 b 524 549 524 465 524 507 b 526 660 524 590 524 628 l 588 683 b 599 443 589 608 593 504 b 781 486 635 426 763 467 b 789 644 782 539 783 593 b 846 571 807 613 828 590 b 885 582 854 571 878 575 b 953 689 894 589 931 642 b 936 464 949 608 942 529 z "},"÷":{"ha":940,"x_min":0,"x_max":0,"o":"m 893 576 b 771 568 860 575 818 572 b 106 453 568 551 268 506 b 56 324 82 436 61 374 b 69 250 51 285 56 253 b 879 460 218 300 693 440 b 904 529 889 474 900 504 b 893 576 906 549 906 568 z m 432 554 b 681 758 556 554 668 651 b 557 894 692 842 632 894 b 311 693 439 894 324 800 b 432 554 301 614 357 554 z m 408 -8 b 656 196 531 -8 643 89 b 532 332 667 278 607 332 b 286 131 414 332 299 238 b 408 -8 276 51 333 -8 z "},"®":{"ha":911,"x_min":0,"x_max":0,"o":"m 121 533 b 118 472 118 513 118 493 b 389 183 118 306 211 183 b 451 189 408 183 431 186 b 901 661 692 222 868 439 b 906 726 906 683 906 706 b 631 1013 906 893 806 1013 b 567 1007 610 1013 589 1011 b 121 533 356 978 154 760 z m 700 504 b 618 532 667 508 640 518 b 736 694 678 575 726 638 b 571 851 754 806 668 851 b 524 847 556 851 540 850 b 364 786 472 840 413 818 b 549 886 417 839 481 876 b 586 889 563 888 574 889 b 774 685 706 889 774 806 b 771 640 774 669 774 656 b 471 318 750 483 631 340 b 431 315 457 315 443 315 b 343 333 396 315 368 321 b 499 393 388 343 446 363 b 494 468 496 413 493 442 b 618 408 532 440 585 417 b 700 504 650 429 681 458 z m 253 565 b 342 761 263 636 294 706 b 318 631 333 718 325 675 b 296 371 306 544 294 457 b 250 518 265 407 250 458 b 253 565 250 533 250 549 z m 508 636 b 563 608 544 643 563 629 b 503 557 560 589 529 564 b 508 636 499 563 503 603 z "},"×":{"ha":885,"x_min":0,"x_max":0,"o":"m 193 -17 b 385 210 250 56 315 132 b 683 101 490 153 603 108 b 817 288 743 143 803 240 b 608 449 750 307 676 372 b 889 718 711 554 810 647 b 778 800 881 750 832 811 b 508 578 725 765 621 681 b 403 756 457 647 419 715 b 101 419 311 736 71 479 b 225 308 129 385 174 346 b 39 93 140 222 69 143 b 193 -17 26 28 133 -28 z "},"©":{"ha":911,"x_min":0,"x_max":0,"o":"m 121 533 b 118 472 118 513 118 493 b 389 183 118 306 211 183 b 451 189 408 183 431 186 b 901 661 692 222 868 439 b 906 726 906 683 906 706 b 631 1013 906 893 806 1013 b 567 1007 610 1013 589 1011 b 121 533 356 978 154 760 z m 253 565 b 549 886 274 721 406 865 b 586 889 563 888 574 889 b 774 685 706 889 774 806 b 771 640 774 669 774 656 b 471 318 750 483 631 340 b 432 315 457 315 444 315 b 250 518 314 315 250 400 b 253 565 250 533 250 549 z m 668 556 b 540 481 608 503 579 486 b 489 535 499 475 483 503 b 608 633 499 599 556 628 b 651 635 624 636 639 636 b 689 768 668 660 681 715 b 694 818 692 786 693 803 b 603 857 681 835 661 857 b 557 854 590 857 575 856 b 289 558 424 833 307 699 b 465 350 272 443 338 332 b 663 463 556 364 628 419 b 678 513 669 481 676 497 b 668 556 681 529 679 546 z "},"Á":{"ha":785,"x_min":0,"x_max":0,"o":"m 226 714 b -56 -11 172 618 15 286 b 158 -58 -43 -42 72 -58 b 246 -47 199 -58 231 -56 b 278 88 247 -17 260 33 b 525 171 346 117 463 160 b 563 1 542 114 557 49 b 860 156 657 11 840 107 b 597 856 825 418 692 710 b 531 853 581 858 554 856 b 226 714 431 839 268 769 z m 349 276 b 425 433 376 344 406 401 b 481 318 443 406 461 368 b 349 276 443 310 393 293 z m 454 1143 b 188 876 371 1089 249 968 b 258 772 178 854 217 786 b 601 950 378 863 503 900 b 454 1143 625 1003 504 1164 z "},"Â":{"ha":785,"x_min":0,"x_max":0,"o":"m 226 714 b -56 -11 172 618 15 286 b 158 -58 -43 -42 72 -58 b 246 -47 199 -58 231 -56 b 278 88 247 -17 260 33 b 525 171 346 117 463 160 b 563 1 542 114 557 49 b 860 156 657 11 840 107 b 597 856 825 418 692 710 b 531 853 581 858 554 856 b 226 714 431 839 268 769 z m 349 276 b 425 433 376 344 406 401 b 481 318 443 406 461 368 b 349 276 443 310 393 293 z m 472 1178 b 296 1093 404 1156 332 1118 b 75 783 236 1000 117 842 b 150 776 93 779 119 776 b 250 785 182 776 218 779 b 301 800 269 788 286 793 b 388 919 324 829 357 868 b 485 865 410 896 453 872 b 725 989 557 879 681 947 b 472 1178 646 1028 546 1089 z "},"Ä":{"ha":785,"x_min":0,"x_max":0,"o":"m 226 714 b -56 -11 172 618 15 286 b 158 -58 -43 -42 72 -58 b 246 -47 199 -58 231 -56 b 278 88 247 -17 260 33 b 525 171 346 117 463 160 b 563 1 542 114 557 49 b 860 156 657 11 840 107 b 597 856 825 418 692 710 b 531 853 581 858 554 856 b 226 714 431 839 268 769 z m 349 276 b 425 433 376 344 406 401 b 481 318 443 406 461 368 b 349 276 443 310 393 293 z m 106 903 b 203 792 99 836 132 792 b 421 936 292 792 389 853 b 518 867 431 893 463 867 b 744 1053 619 867 732 946 b 649 1178 754 1122 721 1178 b 431 1018 558 1178 464 1104 b 335 1103 424 1068 393 1103 b 106 903 231 1103 118 1004 z "},"À":{"ha":785,"x_min":0,"x_max":0,"o":"m 226 714 b -56 -11 172 618 15 286 b 158 -58 -43 -42 72 -58 b 246 -47 199 -58 231 -56 b 278 88 247 -17 260 33 b 525 171 346 117 463 160 b 563 1 542 114 557 49 b 860 156 657 11 840 107 b 597 856 825 418 692 710 b 531 853 581 858 554 856 b 226 714 431 839 268 769 z m 349 276 b 425 433 376 344 406 401 b 481 318 443 406 461 368 b 349 276 443 310 393 293 z m 157 881 b 213 882 176 881 193 882 b 536 854 336 882 456 871 b 614 989 568 875 617 957 b 317 1144 564 1032 446 1113 b 157 881 244 1113 133 914 z "},"Å":{"ha":785,"x_min":0,"x_max":0,"o":"m 636 1054 b 499 1222 649 1156 593 1222 b 194 949 356 1222 210 1090 b 317 781 183 850 239 789 b 226 714 275 758 242 735 b -56 -11 172 618 15 286 b 158 -58 -43 -42 72 -58 b 246 -47 199 -58 231 -56 b 278 88 247 -17 260 33 b 525 171 346 117 463 160 b 563 1 542 114 557 49 b 860 156 657 11 840 107 b 597 856 825 418 692 710 b 531 853 581 858 554 856 b 517 850 526 851 521 850 b 636 1054 581 903 628 978 z m 349 276 b 425 433 376 344 406 401 b 481 318 443 406 461 368 b 349 276 443 310 393 293 z m 376 969 b 426 1019 381 999 400 1019 b 454 968 443 1019 458 1007 b 404 917 450 940 431 917 b 376 969 381 917 374 947 z "},"Ã":{"ha":785,"x_min":0,"x_max":0,"o":"m 226 714 b -56 -11 172 618 15 286 b 158 -58 -43 -42 72 -58 b 246 -47 199 -58 231 -56 b 278 88 247 -17 260 33 b 525 171 346 117 463 160 b 563 1 542 114 557 49 b 860 156 657 11 840 107 b 597 856 825 418 692 710 b 531 853 581 858 554 856 b 226 714 431 839 268 769 z m 349 276 b 425 433 376 344 406 401 b 481 318 443 406 461 368 b 349 276 443 310 393 293 z m 281 1115 b 72 979 192 1108 106 1029 b 186 776 54 921 124 790 b 349 879 228 824 293 875 b 386 881 361 881 374 881 b 515 879 433 881 482 876 b 735 1071 608 889 726 1004 b 685 1189 740 1121 714 1172 b 493 1069 651 1150 599 1082 b 281 1115 425 1064 356 1118 z "},"Ç":{"ha":731,"x_min":0,"x_max":0,"o":"m 436 -164 b 479 -194 463 -168 479 -179 b 460 -231 479 -206 472 -218 b 388 -258 442 -246 413 -256 b 315 -250 357 -262 329 -256 b 303 -287 310 -258 306 -272 b 314 -387 297 -324 300 -371 b 363 -392 331 -390 344 -392 b 413 -387 378 -392 393 -390 b 726 -154 538 -371 710 -269 b 707 -78 732 -125 725 -99 b 550 -28 679 -47 621 -24 l 543 7 b 718 128 610 40 669 81 b 660 224 732 156 696 226 b 464 154 592 178 531 154 b 344 274 375 154 338 210 b 664 528 361 411 546 528 b 715 518 682 528 701 525 b 740 603 726 533 735 565 b 743 657 743 619 743 639 b 653 856 743 746 719 844 b 599 858 635 857 617 858 b -10 294 333 858 15 572 b -12 247 -11 279 -12 263 b 290 -56 -12 49 118 -56 b 326 -54 301 -56 314 -56 l 353 -51 b 389 -174 358 -106 372 -157 b 436 -164 403 -167 419 -164 z "},"É":{"ha":718,"x_min":0,"x_max":0,"o":"m 93 -44 b 710 69 360 14 522 50 b 733 174 724 85 733 132 b 708 247 733 208 726 242 b 356 185 606 242 449 210 b 354 256 354 200 354 225 b 642 310 432 281 557 304 b 658 354 651 319 657 338 b 640 463 667 389 664 433 b 358 404 625 471 439 431 b 367 474 363 431 364 456 b 761 543 533 517 663 532 b 818 725 786 575 808 651 b 821 794 819 749 821 772 b 788 900 821 851 811 894 b 39 693 535 890 74 729 b 24 625 32 681 28 657 b 10 321 15 551 10 436 b 29 -6 10 193 17 64 b 93 -44 33 -35 71 -47 z m 494 1178 b 229 911 413 1124 290 1003 b 300 807 218 889 257 821 b 643 985 418 897 543 935 b 494 1178 667 1038 544 1199 z "},"Ê":{"ha":718,"x_min":0,"x_max":0,"o":"m 93 -44 b 710 69 360 14 522 50 b 733 174 724 85 733 132 b 708 247 733 208 726 242 b 356 185 606 242 449 210 b 354 256 354 200 354 225 b 642 310 432 281 557 304 b 658 354 651 319 657 338 b 640 463 667 389 664 433 b 358 404 625 471 439 431 b 367 474 363 431 364 456 b 761 543 533 517 663 532 b 818 725 786 575 808 651 b 821 794 819 749 821 772 b 788 900 821 851 811 894 b 39 693 535 890 74 729 b 24 625 32 681 28 657 b 10 321 15 551 10 436 b 29 -6 10 193 17 64 b 93 -44 33 -35 71 -47 z m 490 1197 b 314 1113 421 1176 350 1139 b 93 804 254 1019 133 861 b 168 796 111 799 138 796 b 268 806 200 796 236 799 b 318 819 288 807 304 813 b 406 940 342 849 375 889 b 503 885 428 917 469 893 b 743 1008 575 899 699 968 b 490 1197 664 1047 564 1108 z "},"Ë":{"ha":718,"x_min":0,"x_max":0,"o":"m 93 -44 b 710 69 360 14 522 50 b 733 174 724 85 733 132 b 708 247 733 208 726 242 b 356 185 606 242 449 210 b 354 256 354 200 354 225 b 642 310 432 281 557 304 b 658 354 651 319 657 338 b 640 463 667 389 664 433 b 358 404 625 471 439 431 b 367 474 363 431 364 456 b 761 543 533 517 663 532 b 818 725 786 575 808 651 b 821 794 819 749 821 772 b 788 900 821 851 811 894 b 39 693 535 890 74 729 b 24 625 32 681 28 657 b 10 321 15 551 10 436 b 29 -6 10 193 17 64 b 93 -44 33 -35 71 -47 z m 96 929 b 193 818 89 863 122 818 b 411 963 281 818 379 879 b 507 893 419 919 453 893 b 735 1079 610 893 722 972 b 639 1204 743 1149 711 1204 b 421 1044 549 1204 454 1131 b 325 1129 414 1093 382 1129 b 96 929 219 1129 108 1031 z "},"È":{"ha":718,"x_min":0,"x_max":0,"o":"m 93 -44 b 710 69 360 14 522 50 b 733 174 724 85 733 132 b 708 247 733 208 726 242 b 356 185 606 242 449 210 b 354 256 354 200 354 225 b 642 310 432 281 557 304 b 658 354 651 319 657 338 b 640 463 667 389 664 433 b 358 404 625 471 439 431 b 367 474 363 431 364 456 b 761 543 533 517 663 532 b 818 725 786 575 808 651 b 821 794 819 749 821 772 b 788 900 821 851 811 894 b 39 693 535 890 74 729 b 24 625 32 681 28 657 b 10 321 15 551 10 436 b 29 -6 10 193 17 64 b 93 -44 33 -35 71 -47 z m 156 903 b 211 904 175 903 193 904 b 535 875 335 904 456 893 b 613 1010 567 896 615 979 b 315 1167 563 1054 444 1133 b 156 903 243 1133 132 935 z "},"Í":{"ha":432,"x_min":0,"x_max":0,"o":"m 49 624 b 43 488 44 579 43 533 b 106 -44 43 257 83 31 b 143 -51 115 -49 128 -51 b 411 43 231 -51 399 0 b 443 540 410 118 418 394 b 489 756 456 629 474 711 b 432 765 474 763 456 765 b 49 624 303 765 68 671 z m 340 1132 b 74 867 257 1079 135 957 b 144 763 64 843 103 776 b 488 940 264 853 389 890 b 340 1132 511 993 390 1154 z "},"Î":{"ha":432,"x_min":0,"x_max":0,"o":"m 49 624 b 43 488 44 579 43 533 b 106 -44 43 257 83 31 b 143 -51 115 -49 128 -51 b 411 43 231 -51 399 0 b 443 540 410 118 418 394 b 489 756 456 629 474 711 b 432 765 474 763 456 765 b 49 624 303 765 68 671 z m 300 1143 b 124 1057 231 1121 160 1083 b -97 749 64 965 -57 806 b -22 742 -79 743 -53 742 b 78 750 10 742 46 743 b 129 765 97 753 114 757 b 215 885 151 793 185 833 b 313 831 238 861 281 838 b 553 954 385 843 508 913 b 300 1143 474 993 374 1054 z "},"Ï":{"ha":432,"x_min":0,"x_max":0,"o":"m 49 624 b 43 488 44 579 43 533 b 106 -44 43 257 83 31 b 143 -51 115 -49 128 -51 b 411 43 231 -51 399 0 b 443 540 410 118 418 394 b 489 756 456 629 474 711 b 432 765 474 763 456 765 b 49 624 303 765 68 671 z m -74 856 b 22 743 -82 789 -47 743 b 242 889 111 743 208 806 b 338 818 250 846 282 818 b 565 1006 440 818 553 899 b 468 1131 574 1075 542 1131 b 251 971 379 1131 283 1056 b 156 1056 243 1019 213 1056 b -74 856 50 1056 -61 956 z "},"Ì":{"ha":432,"x_min":0,"x_max":0,"o":"m 49 624 b 43 488 44 579 43 533 b 106 -44 43 257 83 31 b 143 -51 115 -49 128 -51 b 411 43 231 -51 399 0 b 443 540 410 118 418 394 b 489 756 456 629 474 711 b 432 765 474 763 456 765 b 49 624 303 765 68 671 z m 35 864 b 90 865 54 864 71 865 b 414 836 214 865 333 854 b 492 971 444 857 493 940 b 193 1128 442 1015 324 1094 b 35 864 122 1094 11 896 z "},"Ñ":{"ha":838,"x_min":0,"x_max":0,"o":"m 332 1106 b 125 969 243 1100 158 1019 b 239 768 106 913 176 781 b 401 869 281 815 346 867 b 439 871 414 871 426 871 b 568 869 486 871 535 868 b 788 1063 661 881 779 994 b 738 1181 793 1113 767 1164 b 544 1061 704 1142 651 1074 b 332 1106 478 1056 407 1110 z m 564 -4 b 839 111 597 -15 804 57 b 911 629 857 186 886 421 b 929 868 921 707 931 808 b 843 893 918 885 886 893 b 528 807 739 893 606 858 b 554 331 531 757 553 546 b 388 753 479 453 406 689 b 338 756 378 756 358 757 b 19 639 235 746 47 685 b 13 433 15 568 13 500 b 57 -49 13 206 39 11 b 375 39 133 -67 354 1 b 363 274 365 101 363 182 l 363 339 b 564 -4 410 218 533 13 z "},"Ó":{"ha":744,"x_min":0,"x_max":0,"o":"m 818 456 b 819 501 818 471 819 486 b 501 850 819 689 693 850 b 463 847 489 850 475 849 b -12 347 228 818 13 581 b -15 300 -14 331 -15 315 b 306 -53 -15 108 110 -53 b 346 -50 318 -53 332 -51 b 818 456 592 -21 794 239 z m 518 356 b 435 226 514 314 492 232 b 347 374 368 218 342 304 b 443 496 354 431 386 492 b 518 356 511 504 524 404 z m 501 1196 b 235 931 418 1143 296 1021 b 306 826 225 907 264 840 b 649 1004 425 917 550 954 b 501 1196 672 1056 551 1218 z "},"Ô":{"ha":744,"x_min":0,"x_max":0,"o":"m 818 456 b 819 501 818 471 819 486 b 501 850 819 689 693 850 b 463 847 489 850 475 849 b -12 347 228 818 13 581 b -15 300 -14 331 -15 315 b 306 -53 -15 108 110 -53 b 346 -50 318 -53 332 -51 b 818 456 592 -21 794 239 z m 518 356 b 435 226 514 314 492 232 b 347 374 368 218 342 304 b 443 496 354 431 386 492 b 518 356 511 504 524 404 z m 453 1183 b 276 1099 383 1163 313 1125 b 56 790 217 1006 96 847 b 131 782 74 785 100 782 b 231 792 163 782 199 785 b 281 806 250 793 267 799 b 368 926 304 835 338 875 b 465 871 390 903 432 879 b 706 994 538 885 661 954 b 453 1183 626 1033 526 1094 z "},"Ö":{"ha":744,"x_min":0,"x_max":0,"o":"m 818 456 b 819 501 818 471 819 486 b 501 850 819 689 693 850 b 463 847 489 850 475 849 b -12 347 228 818 13 581 b -15 300 -14 331 -15 315 b 306 -53 -15 108 110 -53 b 346 -50 318 -53 332 -51 b 818 456 592 -21 794 239 z m 518 356 b 435 226 514 314 492 232 b 347 374 368 218 342 304 b 443 496 354 431 386 492 b 518 356 511 504 524 404 z m 106 914 b 203 803 99 847 132 803 b 421 947 292 803 389 864 b 518 878 431 906 463 878 b 744 1064 619 878 732 957 b 649 1189 754 1133 721 1189 b 431 1031 558 1189 464 1115 b 335 1114 424 1079 393 1114 b 106 914 231 1114 118 1015 z "},"Ò":{"ha":744,"x_min":0,"x_max":0,"o":"m 818 456 b 819 501 818 471 819 486 b 501 850 819 689 693 850 b 463 847 489 850 475 849 b -12 347 228 818 13 581 b -15 300 -14 331 -15 315 b 306 -53 -15 108 110 -53 b 346 -50 318 -53 332 -51 b 818 456 592 -21 794 239 z m 518 356 b 435 226 514 314 492 232 b 347 374 368 218 342 304 b 443 496 354 431 386 492 b 518 356 511 504 524 404 z m 181 897 b 235 899 199 897 217 899 b 558 869 358 899 479 888 b 636 1006 590 892 639 974 b 339 1161 586 1049 468 1129 b 181 897 268 1129 156 931 z "},"Õ":{"ha":744,"x_min":0,"x_max":0,"o":"m 818 456 b 819 501 818 471 819 486 b 501 850 819 689 693 850 b 463 847 489 850 475 849 b -12 347 228 818 13 581 b -15 300 -14 331 -15 315 b 306 -53 -15 108 110 -53 b 346 -50 318 -53 332 -51 b 818 456 592 -21 794 239 z m 518 356 b 435 226 514 314 492 232 b 347 374 368 218 342 304 b 443 496 354 431 386 492 b 518 356 511 504 524 404 z m 271 1115 b 64 979 182 1108 97 1029 b 178 776 44 921 115 790 b 340 879 218 824 285 875 b 378 881 353 881 365 881 b 506 879 425 881 474 876 b 726 1071 600 889 718 1004 b 676 1189 731 1121 706 1172 b 483 1069 643 1150 590 1082 b 271 1115 417 1064 346 1118 z "},"Š":{"ha":733,"x_min":0,"x_max":0,"o":"m 263 -69 b 786 276 457 -69 757 78 b 786 313 788 289 788 300 b 592 435 781 394 694 431 b 543 436 575 436 560 436 b 403 432 490 436 438 432 b 363 446 383 432 361 432 b 413 483 365 468 399 479 b 621 519 468 506 551 519 b 726 504 665 519 704 515 b 800 688 757 524 792 610 b 803 725 801 700 803 713 b 771 822 803 768 793 810 b 608 863 724 851 668 863 b 446 843 556 863 500 856 l 456 850 b 679 1128 515 931 638 1075 b 568 1142 649 1136 608 1142 b 460 1124 529 1142 489 1136 b 372 1015 436 1097 403 1060 b 281 1069 354 1039 314 1063 b 44 967 206 1061 90 1004 b 278 786 118 928 207 869 b 0 463 129 715 17 599 b 194 239 -15 329 82 257 b 71 44 126 200 71 122 b 263 -69 71 -50 196 -69 z m 286 231 b 463 239 365 231 426 239 b 499 222 488 239 500 233 b 343 165 493 183 386 164 b 235 232 304 165 233 171 b 286 231 251 231 268 231 z "},"Ú":{"ha":789,"x_min":0,"x_max":0,"o":"m 842 881 b 799 879 831 882 814 881 b 465 778 701 869 538 824 b 481 508 476 692 481 597 b 474 349 481 451 479 397 b 410 158 463 243 440 168 b 368 319 381 149 368 219 b 381 528 368 382 372 456 b 415 753 389 608 401 688 b 26 608 281 738 64 654 b 6 481 18 563 11 522 b -1 349 1 433 -1 390 b 294 -57 -1 81 99 -57 b 356 -53 315 -57 336 -56 b 860 526 676 -12 828 239 b 867 640 864 564 867 601 b 842 881 867 719 857 801 z m 478 1126 b 211 860 394 1072 272 951 b 282 756 201 838 240 769 b 625 933 401 846 526 883 b 478 1126 649 986 528 1147 z "},"Û":{"ha":789,"x_min":0,"x_max":0,"o":"m 842 881 b 799 879 831 882 814 881 b 465 778 701 869 538 824 b 481 508 476 692 481 597 b 474 349 481 451 479 397 b 410 158 463 243 440 168 b 368 319 381 149 368 219 b 381 528 368 382 372 456 b 415 753 389 608 401 688 b 26 608 281 738 64 654 b 6 481 18 563 11 522 b -1 349 1 433 -1 390 b 294 -57 -1 81 99 -57 b 356 -53 315 -57 336 -56 b 860 526 676 -12 828 239 b 867 640 864 564 867 601 b 842 881 867 719 857 801 z m 492 1156 b 315 1069 422 1133 351 1096 b 93 761 256 978 135 818 b 168 754 113 756 139 754 b 268 763 201 754 238 756 b 319 778 289 765 306 769 b 406 897 343 806 376 846 b 504 843 429 874 471 850 b 743 967 576 856 700 925 b 492 1156 665 1006 565 1067 z "},"Ü":{"ha":789,"x_min":0,"x_max":0,"o":"m 842 881 b 799 879 831 882 814 881 b 465 778 701 869 538 824 b 481 508 476 692 481 597 b 474 349 481 451 479 397 b 410 158 463 243 440 168 b 368 319 381 149 368 219 b 381 528 368 382 372 456 b 415 753 389 608 401 688 b 26 608 281 738 64 654 b 6 481 18 563 11 522 b -1 349 1 433 -1 390 b 294 -57 -1 81 99 -57 b 356 -53 315 -57 336 -56 b 860 526 676 -12 828 239 b 867 640 864 564 867 601 b 842 881 867 719 857 801 z m 103 882 b 199 771 94 817 129 771 b 418 917 288 771 385 832 b 514 846 426 874 458 846 b 742 1032 617 846 729 926 b 644 1157 750 1103 718 1157 b 428 999 556 1157 460 1083 b 331 1082 419 1047 389 1082 b 103 882 226 1082 115 983 z "},"Ù":{"ha":789,"x_min":0,"x_max":0,"o":"m 842 881 b 799 879 831 882 814 881 b 465 778 701 869 538 824 b 481 508 476 692 481 597 b 474 349 481 451 479 397 b 410 158 463 243 440 168 b 368 319 381 149 368 219 b 381 528 368 382 372 456 b 415 753 389 608 401 688 b 26 608 281 738 64 654 b 6 481 18 563 11 522 b -1 349 1 433 -1 390 b 294 -57 -1 81 99 -57 b 356 -53 315 -57 336 -56 b 860 526 676 -12 828 239 b 867 640 864 564 867 601 b 842 881 867 719 857 801 z m 165 858 b 219 860 183 858 201 860 b 543 831 343 860 464 849 b 621 967 575 853 624 935 b 324 1122 571 1010 454 1090 b 165 858 253 1090 142 892 z "},"Ý":{"ha":811,"x_min":0,"x_max":0,"o":"m 524 1167 b 257 900 442 1113 318 992 b 317 801 249 881 279 822 b 28 563 226 779 40 646 b 281 200 47 431 172 238 l 275 190 b 153 26 218 111 204 96 b 368 -69 143 -4 267 -69 b 456 -44 401 -69 432 -61 b 931 772 599 83 856 474 b 631 881 946 826 750 881 b 543 857 586 881 554 874 b 436 453 532 733 492 592 b 354 803 378 513 350 704 b 340 806 350 804 344 806 b 671 974 456 889 575 925 b 524 1167 694 1026 574 1188 z "},"Ÿ":{"ha":811,"x_min":0,"x_max":0,"o":"m 97 907 b 193 796 90 842 124 796 b 413 942 282 796 381 857 b 508 871 421 899 454 871 b 736 1057 611 871 724 951 b 640 1182 744 1128 713 1182 b 422 1024 550 1182 456 1108 b 326 1107 415 1072 383 1107 b 97 907 221 1107 110 1008 z m 275 190 b 153 26 218 111 204 96 b 368 -69 143 -4 267 -69 b 456 -44 401 -69 432 -61 b 931 772 599 83 856 474 b 631 881 946 826 750 881 b 543 857 586 881 554 874 b 436 453 532 733 492 592 b 354 803 378 513 350 704 b 28 563 297 828 43 661 b 281 200 47 431 172 238 z "},"Ž":{"ha":726,"x_min":0,"x_max":0,"o":"m 260 182 b 774 501 396 294 621 411 b 810 656 797 550 804 606 b 817 757 814 689 817 724 b 790 885 817 818 808 872 b 403 836 693 888 543 867 b 481 875 433 849 461 863 b 725 1164 547 963 681 1110 b 606 1181 697 1175 651 1181 b 551 1178 586 1181 568 1179 b 499 1167 531 1178 515 1172 b 403 1054 475 1140 438 1103 b 310 1118 383 1079 343 1106 b 61 1013 238 1108 107 1050 b 292 811 135 968 226 903 b 47 731 188 785 96 756 b 21 619 35 706 26 668 b 15 522 18 589 15 556 b 44 381 15 457 24 399 b 369 474 135 406 281 457 b -26 92 190 339 6 183 b -33 33 -32 74 -33 54 b -12 -57 -33 -4 -25 -42 b 40 -62 -7 -65 18 -69 b 711 64 188 -17 579 56 b 724 131 717 74 722 118 b 689 243 731 181 711 239 b 260 182 558 232 342 201 z "},"á":{"ha":785,"x_min":0,"x_max":0,"o":"m 226 714 b -56 -11 172 618 15 286 b 158 -58 -43 -42 72 -58 b 246 -47 199 -58 231 -56 b 278 88 247 -17 260 33 b 525 171 346 117 463 160 b 563 1 542 114 557 49 b 860 156 657 11 840 107 b 597 856 825 418 692 710 b 531 853 581 858 554 856 b 226 714 431 839 268 769 z m 349 276 b 425 433 376 344 406 401 b 481 318 443 406 461 368 b 349 276 443 310 393 293 z m 454 1143 b 188 876 371 1089 249 968 b 258 772 178 854 217 786 b 601 950 378 863 503 900 b 454 1143 625 1003 504 1164 z "},"â":{"ha":785,"x_min":0,"x_max":0,"o":"m 226 714 b -56 -11 172 618 15 286 b 158 -58 -43 -42 72 -58 b 246 -47 199 -58 231 -56 b 278 88 247 -17 260 33 b 525 171 346 117 463 160 b 563 1 542 114 557 49 b 860 156 657 11 840 107 b 597 856 825 418 692 710 b 531 853 581 858 554 856 b 226 714 431 839 268 769 z m 349 276 b 425 433 376 344 406 401 b 481 318 443 406 461 368 b 349 276 443 310 393 293 z m 472 1178 b 296 1093 404 1156 332 1118 b 75 783 236 1000 117 842 b 150 776 93 779 119 776 b 250 785 182 776 218 779 b 301 800 269 788 286 793 b 388 919 324 829 357 868 b 485 865 410 896 453 872 b 725 989 557 879 681 947 b 472 1178 646 1028 546 1089 z "},"ä":{"ha":785,"x_min":0,"x_max":0,"o":"m 226 714 b -56 -11 172 618 15 286 b 158 -58 -43 -42 72 -58 b 246 -47 199 -58 231 -56 b 278 88 247 -17 260 33 b 525 171 346 117 463 160 b 563 1 542 114 557 49 b 860 156 657 11 840 107 b 597 856 825 418 692 710 b 531 853 581 858 554 856 b 226 714 431 839 268 769 z m 349 276 b 425 433 376 344 406 401 b 481 318 443 406 461 368 b 349 276 443 310 393 293 z m 106 903 b 203 792 99 836 132 792 b 421 936 292 792 389 853 b 518 867 431 893 463 867 b 744 1053 619 867 732 946 b 649 1178 754 1122 721 1178 b 431 1018 558 1178 464 1104 b 335 1103 424 1068 393 1103 b 106 903 231 1103 118 1004 z "},"à":{"ha":785,"x_min":0,"x_max":0,"o":"m 226 714 b -56 -11 172 618 15 286 b 158 -58 -43 -42 72 -58 b 246 -47 199 -58 231 -56 b 278 88 247 -17 260 33 b 525 171 346 117 463 160 b 563 1 542 114 557 49 b 860 156 657 11 840 107 b 597 856 825 418 692 710 b 531 853 581 858 554 856 b 226 714 431 839 268 769 z m 349 276 b 425 433 376 344 406 401 b 481 318 443 406 461 368 b 349 276 443 310 393 293 z m 157 881 b 213 882 176 881 193 882 b 536 854 336 882 456 871 b 614 989 568 875 617 957 b 317 1144 564 1032 446 1113 b 157 881 244 1113 133 914 z "},"å":{"ha":785,"x_min":0,"x_max":0,"o":"m 636 1054 b 499 1222 649 1156 593 1222 b 194 949 356 1222 210 1090 b 317 781 183 850 239 789 b 226 714 275 758 242 735 b -56 -11 172 618 15 286 b 158 -58 -43 -42 72 -58 b 246 -47 199 -58 231 -56 b 278 88 247 -17 260 33 b 525 171 346 117 463 160 b 563 1 542 114 557 49 b 860 156 657 11 840 107 b 597 856 825 418 692 710 b 531 853 581 858 554 856 b 517 850 526 851 521 850 b 636 1054 581 903 628 978 z m 349 276 b 425 433 376 344 406 401 b 481 318 443 406 461 368 b 349 276 443 310 393 293 z m 376 969 b 426 1019 381 999 400 1019 b 454 968 443 1019 458 1007 b 404 917 450 940 431 917 b 376 969 381 917 374 947 z "},"ã":{"ha":785,"x_min":0,"x_max":0,"o":"m 226 714 b -56 -11 172 618 15 286 b 158 -58 -43 -42 72 -58 b 246 -47 199 -58 231 -56 b 278 88 247 -17 260 33 b 525 171 346 117 463 160 b 563 1 542 114 557 49 b 860 156 657 11 840 107 b 597 856 825 418 692 710 b 531 853 581 858 554 856 b 226 714 431 839 268 769 z m 349 276 b 425 433 376 344 406 401 b 481 318 443 406 461 368 b 349 276 443 310 393 293 z m 281 1115 b 72 979 192 1108 106 1029 b 186 776 54 921 124 790 b 349 879 228 824 293 875 b 386 881 361 881 374 881 b 515 879 433 881 482 876 b 735 1071 608 889 726 1004 b 685 1189 740 1121 714 1172 b 493 1069 651 1150 599 1082 b 281 1115 425 1064 356 1118 z "},"ç":{"ha":731,"x_min":0,"x_max":0,"o":"m 436 -164 b 479 -194 463 -168 479 -179 b 460 -231 479 -206 472 -218 b 388 -258 442 -246 413 -256 b 315 -250 357 -262 329 -256 b 303 -287 310 -258 306 -272 b 314 -387 297 -324 300 -371 b 363 -392 331 -390 344 -392 b 413 -387 378 -392 393 -390 b 726 -154 538 -371 710 -269 b 707 -78 732 -125 725 -99 b 550 -28 679 -47 621 -24 l 543 7 b 718 128 610 40 669 81 b 660 224 732 156 696 226 b 464 154 592 178 531 154 b 344 274 375 154 338 210 b 664 528 361 411 546 528 b 715 518 682 528 701 525 b 740 603 726 533 735 565 b 743 657 743 619 743 639 b 653 856 743 746 719 844 b 599 858 635 857 617 858 b -10 294 333 858 15 572 b -12 247 -11 279 -12 263 b 290 -56 -12 49 118 -56 b 326 -54 301 -56 314 -56 l 353 -51 b 389 -174 358 -106 372 -157 b 436 -164 403 -167 419 -164 z "},"é":{"ha":718,"x_min":0,"x_max":0,"o":"m 494 1178 b 229 911 413 1124 290 1003 b 300 807 218 889 257 821 b 643 985 418 897 543 935 b 494 1178 667 1038 544 1199 z m 49 -57 b 696 106 285 -32 493 17 b 717 163 706 114 714 136 b 693 271 721 207 715 264 b 356 185 569 225 463 203 b 354 256 354 200 354 225 b 642 310 432 281 557 304 b 658 354 651 319 657 338 b 640 463 667 389 664 433 b 358 404 625 471 439 431 b 367 474 363 431 364 456 b 761 543 533 517 663 532 b 818 725 786 575 808 651 b 821 794 819 749 821 772 b 788 900 821 851 811 894 b 39 693 535 890 74 729 b 24 625 32 681 28 657 b 10 317 15 550 10 432 b 49 -57 10 132 22 -47 z "},"ê":{"ha":718,"x_min":0,"x_max":0,"o":"m 490 1197 b 314 1113 421 1176 350 1139 b 93 804 254 1019 133 861 b 168 796 111 799 138 796 b 268 806 200 796 236 799 b 318 819 288 807 304 813 b 406 940 342 849 375 889 b 503 885 428 917 469 893 b 743 1008 575 899 699 968 b 490 1197 664 1047 564 1108 z m 49 -57 b 696 106 285 -32 493 17 b 717 163 706 114 714 136 b 693 271 721 207 715 264 b 356 185 569 225 463 203 b 354 256 354 200 354 225 b 642 310 432 281 557 304 b 658 354 651 319 657 338 b 640 463 667 389 664 433 b 358 404 625 471 439 431 b 367 474 363 431 364 456 b 761 543 533 517 663 532 b 818 725 786 575 808 651 b 821 794 819 749 821 772 b 788 900 821 851 811 894 b 39 693 535 890 74 729 b 24 625 32 681 28 657 b 10 317 15 550 10 432 b 49 -57 10 132 22 -47 z "},"ë":{"ha":718,"x_min":0,"x_max":0,"o":"m 96 929 b 193 818 89 863 122 818 b 411 963 281 818 379 879 b 507 893 419 919 453 893 b 735 1079 610 893 722 972 b 639 1204 743 1149 711 1204 b 421 1044 549 1204 454 1131 b 325 1129 414 1093 382 1129 b 96 929 219 1129 108 1031 z m 49 -57 b 696 106 285 -32 493 17 b 717 163 706 114 714 136 b 693 271 721 207 715 264 b 356 185 569 225 463 203 b 354 256 354 200 354 225 b 642 310 432 281 557 304 b 658 354 651 319 657 338 b 640 463 667 389 664 433 b 358 404 625 471 439 431 b 367 474 363 431 364 456 b 761 543 533 517 663 532 b 818 725 786 575 808 651 b 821 794 819 749 821 772 b 788 900 821 851 811 894 b 39 693 535 890 74 729 b 24 625 32 681 28 657 b 10 317 15 550 10 432 b 49 -57 10 132 22 -47 z "},"è":{"ha":718,"x_min":0,"x_max":0,"o":"m 156 903 b 211 904 175 903 193 904 b 535 875 335 904 456 893 b 613 1010 567 896 615 979 b 315 1167 563 1054 444 1133 b 156 903 243 1133 132 935 z m 49 -57 b 696 106 285 -32 493 17 b 717 163 706 114 714 136 b 693 271 721 207 715 264 b 356 185 569 225 463 203 b 354 256 354 200 354 225 b 642 310 432 281 557 304 b 658 354 651 319 657 338 b 640 463 667 389 664 433 b 358 404 625 471 439 431 b 367 474 363 431 364 456 b 761 543 533 517 663 532 b 818 725 786 575 808 651 b 821 794 819 749 821 772 b 788 900 821 851 811 894 b 39 693 535 890 74 729 b 24 625 32 681 28 657 b 10 317 15 550 10 432 b 49 -57 10 132 22 -47 z "},"í":{"ha":432,"x_min":0,"x_max":0,"o":"m 49 624 b 43 488 44 579 43 533 b 106 -44 43 257 83 31 b 143 -51 115 -49 128 -51 b 411 43 231 -51 399 0 b 443 540 410 118 418 394 b 489 756 456 629 474 711 b 432 765 474 763 456 765 b 49 624 303 765 68 671 z m 340 1132 b 74 867 257 1079 135 957 b 144 763 64 843 103 776 b 488 940 264 853 389 890 b 340 1132 511 993 390 1154 z "},"î":{"ha":432,"x_min":0,"x_max":0,"o":"m 49 624 b 43 488 44 579 43 533 b 106 -44 43 257 83 31 b 143 -51 115 -49 128 -51 b 411 43 231 -51 399 0 b 443 540 410 118 418 394 b 489 756 456 629 474 711 b 432 765 474 763 456 765 b 49 624 303 765 68 671 z m 300 1143 b 124 1057 231 1121 160 1083 b -97 749 64 965 -57 806 b -22 742 -79 743 -53 742 b 78 750 10 742 46 743 b 129 765 97 753 114 757 b 215 885 151 793 185 833 b 313 831 238 861 281 838 b 553 954 385 843 508 913 b 300 1143 474 993 374 1054 z "},"ï":{"ha":432,"x_min":0,"x_max":0,"o":"m 49 624 b 43 488 44 579 43 533 b 106 -44 43 257 83 31 b 143 -51 115 -49 128 -51 b 411 43 231 -51 399 0 b 443 540 410 118 418 394 b 489 756 456 629 474 711 b 432 765 474 763 456 765 b 49 624 303 765 68 671 z m -74 856 b 22 743 -82 789 -47 743 b 242 889 111 743 208 806 b 338 818 250 846 282 818 b 565 1006 440 818 553 899 b 468 1131 574 1075 542 1131 b 251 971 379 1131 283 1056 b 156 1056 243 1019 213 1056 b -74 856 50 1056 -61 956 z "},"ì":{"ha":432,"x_min":0,"x_max":0,"o":"m 49 624 b 43 488 44 579 43 533 b 106 -44 43 257 83 31 b 143 -51 115 -49 128 -51 b 411 43 231 -51 399 0 b 443 540 410 118 418 394 b 489 756 456 629 474 711 b 432 765 474 763 456 765 b 49 624 303 765 68 671 z m 35 864 b 90 865 54 864 71 865 b 414 836 214 865 333 854 b 492 971 444 857 493 940 b 193 1128 442 1015 324 1094 b 35 864 122 1094 11 896 z "},"ñ":{"ha":838,"x_min":0,"x_max":0,"o":"m 564 -4 b 839 111 597 -15 804 57 b 911 629 857 186 886 421 b 929 868 921 707 931 808 b 843 893 918 885 886 893 b 528 807 739 893 606 858 b 554 331 531 757 553 546 b 388 753 479 453 406 689 b 338 756 378 756 358 757 b 19 639 235 746 47 685 b 13 433 15 568 13 500 b 57 -49 13 206 39 11 b 375 39 133 -67 354 1 b 363 274 365 101 363 182 l 363 339 b 564 -4 410 218 533 13 z m 308 1094 b 101 958 219 1089 135 1008 b 215 756 82 901 153 769 b 378 858 256 804 322 856 b 415 860 390 860 403 860 b 543 858 463 860 511 856 b 764 1051 638 868 756 983 b 714 1168 768 1101 743 1153 b 521 1050 681 1131 628 1063 b 308 1094 454 1043 383 1099 z "},"ó":{"ha":744,"x_min":0,"x_max":0,"o":"m 501 1196 b 235 931 418 1143 296 1021 b 306 826 225 907 264 840 b 649 1004 425 917 550 954 b 501 1196 672 1056 551 1218 z m 817 456 b 818 506 818 472 818 489 b 508 847 818 689 696 847 b 468 844 494 847 481 846 b -11 346 231 818 18 610 b -15 293 -14 329 -15 310 b 296 -50 -15 106 104 -50 b 339 -47 310 -50 325 -49 b 817 456 585 -19 790 239 z m 518 326 b 431 197 513 283 489 204 b 346 343 364 189 339 272 b 443 467 354 399 386 460 b 518 326 513 474 522 375 z "},"ô":{"ha":744,"x_min":0,"x_max":0,"o":"m 453 1183 b 276 1099 383 1163 313 1125 b 56 790 217 1006 96 847 b 131 782 74 785 100 782 b 231 792 163 782 199 785 b 281 806 250 793 267 799 b 368 926 304 835 338 875 b 465 871 390 903 432 879 b 706 994 538 885 661 954 b 453 1183 626 1033 526 1094 z m 817 456 b 818 506 818 472 818 489 b 508 847 818 689 696 847 b 468 844 494 847 481 846 b -11 346 231 818 18 610 b -15 293 -14 329 -15 310 b 296 -50 -15 106 104 -50 b 339 -47 310 -50 325 -49 b 817 456 585 -19 790 239 z m 518 326 b 431 197 513 283 489 204 b 346 343 364 189 339 272 b 443 467 354 399 386 460 b 518 326 513 474 522 375 z "},"ö":{"ha":744,"x_min":0,"x_max":0,"o":"m 106 914 b 203 803 99 847 132 803 b 421 947 292 803 389 864 b 518 878 431 906 463 878 b 744 1064 619 878 732 957 b 649 1189 754 1133 721 1189 b 431 1031 558 1189 464 1115 b 335 1114 424 1079 393 1114 b 106 914 231 1114 118 1015 z m 817 456 b 818 506 818 472 818 489 b 508 847 818 689 696 847 b 468 844 494 847 481 846 b -11 346 231 818 18 610 b -15 293 -14 329 -15 310 b 296 -50 -15 106 104 -50 b 339 -47 310 -50 325 -49 b 817 456 585 -19 790 239 z m 518 326 b 431 197 513 283 489 204 b 346 343 364 189 339 272 b 443 467 354 399 386 460 b 518 326 513 474 522 375 z "},"ò":{"ha":744,"x_min":0,"x_max":0,"o":"m 181 897 b 235 899 199 897 217 899 b 558 869 358 899 479 888 b 636 1006 590 892 639 974 b 339 1161 586 1049 468 1129 b 181 897 268 1129 156 931 z m 817 456 b 818 506 818 472 818 489 b 508 847 818 689 696 847 b 468 844 494 847 481 846 b -11 346 231 818 18 610 b -15 293 -14 329 -15 310 b 296 -50 -15 106 104 -50 b 339 -47 310 -50 325 -49 b 817 456 585 -19 790 239 z m 518 326 b 431 197 513 283 489 204 b 346 343 364 189 339 272 b 443 467 354 399 386 460 b 518 326 513 474 522 375 z "},"õ":{"ha":744,"x_min":0,"x_max":0,"o":"m 271 1115 b 64 979 182 1108 97 1029 b 178 776 44 921 115 790 b 340 879 218 824 285 875 b 378 881 353 881 365 881 b 506 879 425 881 474 876 b 726 1071 600 889 718 1004 b 676 1189 731 1121 706 1172 b 483 1069 643 1150 590 1082 b 271 1115 417 1064 346 1118 z m 817 456 b 818 506 818 472 818 489 b 508 847 818 689 696 847 b 468 844 494 847 481 846 b -11 346 231 818 18 610 b -15 293 -14 329 -15 310 b 296 -50 -15 106 104 -50 b 339 -47 310 -50 325 -49 b 817 456 585 -19 790 239 z m 518 326 b 431 197 513 283 489 204 b 346 343 364 189 339 272 b 443 467 354 399 386 460 b 518 326 513 474 522 375 z "},"š":{"ha":733,"x_min":0,"x_max":0,"o":"m 263 -69 b 786 276 457 -69 757 78 b 786 313 788 289 788 300 b 592 435 781 394 694 431 b 543 436 575 436 560 436 b 403 432 490 436 438 432 b 363 446 383 432 361 432 b 413 483 365 468 399 479 b 621 519 468 506 551 519 b 726 504 665 519 704 515 b 800 688 757 524 792 610 b 803 725 801 700 803 713 b 771 822 803 768 793 810 b 608 863 724 851 668 863 b 446 843 556 863 500 856 l 456 850 b 679 1128 515 931 638 1075 b 568 1142 649 1136 608 1142 b 460 1124 529 1142 489 1136 b 372 1015 436 1097 403 1060 b 281 1069 354 1039 314 1063 b 44 967 206 1061 90 1004 b 278 786 118 928 207 869 b 0 463 129 715 17 599 b 194 239 -15 329 82 257 b 71 44 126 200 71 122 b 263 -69 71 -50 196 -69 z m 286 231 b 463 239 365 231 426 239 b 499 222 488 239 500 233 b 343 165 493 183 386 164 b 235 232 304 165 233 171 b 286 231 251 231 268 231 z "},"ú":{"ha":789,"x_min":0,"x_max":0,"o":"m 842 881 b 799 879 831 882 814 881 b 465 778 701 869 538 824 b 481 508 476 692 481 597 b 474 349 481 451 479 397 b 410 158 463 243 440 168 b 368 319 381 149 368 219 b 381 528 368 382 372 456 b 415 753 389 608 401 688 b 26 608 281 738 64 654 b 6 481 18 563 11 522 b -1 349 1 433 -1 390 b 294 -57 -1 81 99 -57 b 356 -53 315 -57 336 -56 b 860 526 676 -12 828 239 b 867 640 864 564 867 601 b 842 881 867 719 857 801 z m 478 1126 b 211 860 394 1072 272 951 b 282 756 201 838 240 769 b 625 933 401 846 526 883 b 478 1126 649 986 528 1147 z "},"û":{"ha":789,"x_min":0,"x_max":0,"o":"m 842 881 b 799 879 831 882 814 881 b 465 778 701 869 538 824 b 481 508 476 692 481 597 b 474 349 481 451 479 397 b 410 158 463 243 440 168 b 368 319 381 149 368 219 b 381 528 368 382 372 456 b 415 753 389 608 401 688 b 26 608 281 738 64 654 b 6 481 18 563 11 522 b -1 349 1 433 -1 390 b 294 -57 -1 81 99 -57 b 356 -53 315 -57 336 -56 b 860 526 676 -12 828 239 b 867 640 864 564 867 601 b 842 881 867 719 857 801 z m 492 1156 b 315 1069 422 1133 351 1096 b 93 761 256 978 135 818 b 168 754 113 756 139 754 b 268 763 201 754 238 756 b 319 778 289 765 306 769 b 406 897 343 806 376 846 b 504 843 429 874 471 850 b 743 967 576 856 700 925 b 492 1156 665 1006 565 1067 z "},"ü":{"ha":789,"x_min":0,"x_max":0,"o":"m 842 881 b 799 879 831 882 814 881 b 465 778 701 869 538 824 b 481 508 476 692 481 597 b 474 349 481 451 479 397 b 410 158 463 243 440 168 b 368 319 381 149 368 219 b 381 528 368 382 372 456 b 415 753 389 608 401 688 b 26 608 281 738 64 654 b 6 481 18 563 11 522 b -1 349 1 433 -1 390 b 294 -57 -1 81 99 -57 b 356 -53 315 -57 336 -56 b 860 526 676 -12 828 239 b 867 640 864 564 867 601 b 842 881 867 719 857 801 z m 103 882 b 199 771 94 817 129 771 b 418 917 288 771 385 832 b 514 846 426 874 458 846 b 742 1032 617 846 729 926 b 644 1157 750 1103 718 1157 b 428 999 556 1157 460 1083 b 331 1082 419 1047 389 1082 b 103 882 226 1082 115 983 z "},"ù":{"ha":789,"x_min":0,"x_max":0,"o":"m 842 881 b 799 879 831 882 814 881 b 465 778 701 869 538 824 b 481 508 476 692 481 597 b 474 349 481 451 479 397 b 410 158 463 243 440 168 b 368 319 381 149 368 219 b 381 528 368 382 372 456 b 415 753 389 608 401 688 b 26 608 281 738 64 654 b 6 481 18 563 11 522 b -1 349 1 433 -1 390 b 294 -57 -1 81 99 -57 b 356 -53 315 -57 336 -56 b 860 526 676 -12 828 239 b 867 640 864 564 867 601 b 842 881 867 719 857 801 z m 165 858 b 219 860 183 858 201 860 b 543 831 343 860 464 849 b 621 967 575 853 624 935 b 324 1122 571 1010 454 1090 b 165 858 253 1090 142 892 z "},"ý":{"ha":811,"x_min":0,"x_max":0,"o":"m 524 1167 b 257 900 442 1113 318 992 b 317 801 249 881 279 822 b 28 563 226 779 40 646 b 281 200 47 431 172 238 l 275 190 b 153 26 218 111 204 96 b 368 -69 143 -4 267 -69 b 456 -44 401 -69 432 -61 b 931 772 599 83 856 474 b 631 881 946 826 750 881 b 543 857 586 881 554 874 b 436 453 532 733 492 592 b 354 803 378 513 350 704 b 340 806 350 804 344 806 b 671 974 456 889 575 925 b 524 1167 694 1026 574 1188 z "},"ÿ":{"ha":811,"x_min":0,"x_max":0,"o":"m 275 190 b 153 26 218 111 204 96 b 368 -69 143 -4 267 -69 b 456 -44 401 -69 432 -61 b 931 772 599 83 856 474 b 631 881 946 826 750 881 b 543 857 586 881 554 874 b 436 453 532 733 492 592 b 354 803 378 513 350 704 b 28 563 297 828 43 661 b 281 200 47 431 172 238 z m 97 907 b 193 796 90 842 124 796 b 413 942 282 796 381 857 b 508 871 421 899 454 871 b 736 1057 611 871 724 951 b 640 1182 744 1128 713 1182 b 422 1024 550 1182 456 1108 b 326 1107 415 1072 383 1107 b 97 907 221 1107 110 1008 z "},"ž":{"ha":726,"x_min":0,"x_max":0,"o":"m 790 885 b 403 836 693 888 543 867 b 481 875 433 849 461 863 b 725 1164 547 963 681 1110 b 606 1181 697 1175 651 1181 b 551 1178 586 1181 568 1179 b 499 1167 531 1178 515 1172 b 403 1054 475 1140 438 1103 b 310 1118 383 1079 343 1106 b 61 1013 238 1108 107 1050 b 292 811 135 968 226 903 b 47 731 188 785 96 756 b 21 619 35 706 26 668 b 15 522 18 589 15 556 b 44 381 15 457 24 399 b 369 474 135 406 281 457 b -26 92 190 339 6 183 b -33 38 -32 75 -33 56 b -12 -57 -33 -1 -24 -40 b 40 -62 -1 -60 17 -62 b 714 93 200 -62 607 15 b 724 131 718 104 722 118 b 689 243 731 181 711 239 b 260 182 565 217 397 190 b 774 501 396 294 621 411 b 810 656 797 550 804 606 b 817 757 814 689 817 724 b 790 885 817 818 808 872 z "},"€":{"ha":1007,"x_min":0,"x_max":0,"o":"m 956 860 b 833 878 926 871 881 878 b 165 328 524 878 218 640 l 79 304 b 51 231 65 288 56 257 b 63 156 47 200 49 169 b 161 182 88 163 121 172 b 474 -64 186 28 311 -64 b 992 322 689 -64 960 92 b 931 396 994 361 981 396 b 633 182 863 293 743 182 b 504 264 578 182 522 206 b 736 317 582 283 664 300 b 756 356 746 324 756 339 b 728 453 763 388 754 426 b 661 443 710 451 688 449 b 522 418 622 438 574 429 b 738 543 569 500 656 543 b 847 518 779 543 817 532 b 965 788 897 543 958 688 b 956 860 967 817 963 843 z "},"Č":{"ha":731,"x_min":0,"x_max":0,"o":"m 660 224 b 464 154 592 178 531 154 b 344 274 375 154 338 210 b 664 528 361 411 546 528 b 715 518 682 528 701 525 b 740 603 726 533 735 565 b 743 657 743 619 743 639 b 653 856 743 746 719 844 b 599 858 635 857 617 858 b 499 846 567 858 532 854 l 506 850 b 726 1158 565 943 685 1101 b 651 1167 707 1164 681 1167 b 551 1157 618 1167 582 1164 b 500 1143 531 1156 515 1150 b 414 1022 478 1114 443 1074 b 317 1078 392 1046 349 1069 b 76 954 243 1064 119 994 b 324 771 153 915 250 856 b -10 294 151 665 6 478 b -12 247 -11 279 -12 263 b 290 -56 -12 49 118 -56 b 326 -54 301 -56 314 -56 b 718 128 476 -43 622 36 b 660 224 732 156 696 226 z "},"č":{"ha":731,"x_min":0,"x_max":0,"o":"m 660 224 b 464 154 592 178 531 154 b 344 274 375 154 338 210 b 664 528 361 411 546 528 b 715 518 682 528 701 525 b 740 603 726 533 735 565 b 743 657 743 619 743 639 b 653 856 743 746 719 844 b 599 858 635 857 617 858 b 499 846 567 858 532 854 l 506 850 b 726 1158 565 943 685 1101 b 651 1167 707 1164 681 1167 b 551 1157 618 1167 582 1164 b 500 1143 531 1156 515 1150 b 414 1022 478 1114 443 1074 b 317 1078 392 1046 349 1069 b 76 954 243 1064 119 994 b 324 771 153 915 250 856 b -10 294 151 665 6 478 b -12 247 -11 279 -12 263 b 290 -56 -12 49 118 -56 b 326 -54 301 -56 314 -56 b 718 128 476 -43 622 36 b 660 224 732 156 696 226 z "},"Ě":{"ha":718,"x_min":0,"x_max":0,"o":"m 93 -44 b 710 69 360 14 522 50 b 733 174 724 85 733 132 b 708 247 733 208 726 242 b 356 185 606 242 449 210 b 354 256 354 200 354 225 b 642 310 432 281 557 304 b 658 354 651 319 657 338 b 640 463 667 389 664 433 b 358 404 625 471 439 431 b 367 474 363 431 364 456 b 761 543 533 517 663 532 b 818 725 786 575 808 651 b 821 794 819 749 821 772 b 788 900 821 851 811 894 b 440 836 690 896 563 868 l 465 854 b 686 1163 525 946 644 1106 b 611 1169 668 1168 642 1169 b 511 1161 579 1169 543 1168 b 460 1146 492 1158 475 1154 b 374 1026 438 1118 404 1078 b 276 1081 351 1050 308 1074 b 36 957 204 1068 81 999 b 272 788 108 921 200 867 b 39 693 149 747 54 708 b 24 625 32 681 28 657 b 10 321 15 551 10 436 b 29 -6 10 193 17 64 b 93 -44 33 -35 71 -47 z "},"ě":{"ha":718,"x_min":0,"x_max":0,"o":"m 49 -57 b 696 106 285 -32 493 17 b 717 163 706 114 714 136 b 693 271 721 207 715 264 b 356 185 569 225 463 203 b 354 256 354 200 354 225 b 642 310 432 281 557 304 b 658 354 651 319 657 338 b 640 463 667 389 664 433 b 358 404 625 471 439 431 b 367 474 363 431 364 456 b 761 543 533 517 663 532 b 818 725 786 575 808 651 b 821 794 819 749 821 772 b 788 900 821 851 811 894 b 440 836 690 896 563 868 l 465 854 b 686 1163 525 946 644 1106 b 611 1169 668 1168 642 1169 b 511 1161 579 1169 543 1168 b 460 1146 492 1158 475 1154 b 374 1026 438 1118 404 1078 b 276 1081 351 1050 308 1074 b 36 957 204 1068 81 999 b 272 788 108 921 200 867 b 39 693 149 747 54 708 b 24 625 32 681 28 657 b 10 317 15 550 10 432 b 49 -57 10 132 22 -47 z "},"Ř":{"ha":769,"x_min":0,"x_max":0,"o":"m 819 240 b 750 222 804 228 779 222 b 603 261 693 221 626 240 b 846 603 753 369 832 486 b 518 865 869 804 678 865 b 415 857 486 865 451 863 b 442 875 425 864 433 868 b 663 1183 501 968 621 1126 b 588 1192 643 1189 618 1192 b 488 1182 556 1192 518 1189 b 436 1168 468 1181 451 1175 b 350 1047 414 1139 381 1099 b 253 1103 328 1071 285 1094 b 13 979 181 1089 56 1019 b 240 818 82 943 168 892 b 36 718 163 793 90 758 b 26 557 29 682 26 625 b 97 -61 26 342 58 17 b 386 46 147 -74 363 0 b 379 165 381 83 381 124 b 689 25 425 118 581 -4 b 822 206 768 47 815 143 b 819 240 824 218 822 231 z m 388 506 b 476 526 418 518 449 526 b 531 469 511 526 535 506 b 386 344 524 417 453 374 b 383 410 385 369 383 392 b 388 506 383 443 386 472 z "},"ř":{"ha":769,"x_min":0,"x_max":0,"o":"m 819 240 b 750 222 804 228 779 222 b 603 261 693 221 626 240 b 846 603 753 369 832 486 b 518 865 869 804 678 865 b 415 857 486 865 451 863 b 442 875 425 864 433 868 b 663 1183 501 968 621 1126 b 588 1192 643 1189 618 1192 b 488 1182 556 1192 518 1189 b 436 1168 468 1181 451 1175 b 350 1047 414 1139 381 1099 b 253 1103 328 1071 285 1094 b 13 979 181 1089 56 1019 b 240 818 82 943 168 892 b 36 718 163 793 90 758 b 26 557 29 682 26 625 b 97 -61 26 342 58 17 b 386 46 147 -74 363 0 b 379 165 381 83 381 124 b 689 25 425 118 581 -4 b 822 206 768 47 815 143 b 819 240 824 218 822 231 z m 388 506 b 476 526 418 518 449 526 b 531 469 511 526 535 506 b 386 344 524 417 453 374 b 383 410 385 369 383 392 b 388 506 383 443 386 472 z "},"Ť":{"ha":778,"x_min":0,"x_max":0,"o":"m 42 318 l 231 372 b 264 -46 231 186 250 28 b 557 47 325 -57 540 8 b 590 463 557 126 569 310 b 804 497 668 479 743 492 b 878 783 856 588 878 688 b 844 874 879 829 871 865 b 474 813 750 872 611 846 l 494 828 b 717 1136 556 919 675 1079 b 642 1143 697 1142 671 1143 b 542 1135 608 1143 572 1142 b 490 1119 521 1132 506 1128 b 404 1000 468 1092 433 1051 b 306 1056 381 1024 339 1047 b 67 931 233 1042 110 972 b 299 765 138 896 228 842 b 43 668 178 729 79 692 b 19 583 31 649 25 618 b 14 486 17 554 14 519 b 42 318 14 404 25 326 z "},"ť":{"ha":778,"x_min":0,"x_max":0,"o":"m 42 318 l 231 372 b 264 -46 231 186 250 28 b 557 47 325 -57 540 8 b 590 463 557 126 569 310 b 804 497 668 479 743 492 b 878 783 856 588 878 688 b 844 874 879 829 871 865 b 474 813 750 872 611 846 l 494 828 b 717 1136 556 919 675 1079 b 642 1143 697 1142 671 1143 b 542 1135 608 1143 572 1142 b 490 1119 521 1132 506 1128 b 404 1000 468 1092 433 1051 b 306 1056 381 1024 339 1047 b 67 931 233 1042 110 972 b 299 765 138 896 228 842 b 43 668 178 729 79 692 b 19 583 31 649 25 618 b 14 486 17 554 14 519 b 42 318 14 404 25 326 z "},"Ň":{"ha":838,"x_min":0,"x_max":0,"o":"m 564 -4 b 839 111 597 -15 804 57 b 911 629 857 186 886 421 b 929 868 921 707 931 808 b 843 893 918 885 886 893 b 528 807 739 893 606 858 b 554 331 531 757 553 546 b 388 753 479 453 406 689 b 338 756 378 756 358 757 b 19 639 235 746 47 685 b 13 433 15 568 13 500 b 57 -49 13 206 39 11 b 375 39 133 -67 354 1 b 363 274 365 101 363 182 l 363 339 b 564 -4 410 218 533 13 z m 344 772 b 521 857 414 793 485 831 b 743 1167 581 950 701 1108 b 668 1174 724 1171 697 1174 b 568 1165 635 1174 599 1171 b 517 1150 547 1163 531 1157 b 431 1031 493 1121 460 1081 b 332 1085 407 1054 365 1078 b 93 961 260 1071 136 1003 b 344 772 171 922 271 861 z "},"ň":{"ha":838,"x_min":0,"x_max":0,"o":"m 564 -4 b 839 111 597 -15 804 57 b 911 629 857 186 886 421 b 929 868 921 707 931 808 b 843 893 918 885 886 893 b 528 807 739 893 606 858 b 554 331 531 757 553 546 b 388 753 479 453 406 689 b 338 756 378 756 358 757 b 19 639 235 746 47 685 b 13 433 15 568 13 500 b 57 -49 13 206 39 11 b 375 39 133 -67 354 1 b 363 274 365 101 363 182 l 363 339 b 564 -4 410 218 533 13 z m 344 772 b 521 857 414 793 485 831 b 743 1167 581 950 701 1108 b 668 1174 724 1171 697 1174 b 568 1165 635 1174 599 1171 b 517 1150 547 1163 531 1157 b 431 1031 493 1121 460 1081 b 332 1085 407 1054 365 1078 b 93 961 260 1071 136 1003 b 344 772 171 922 271 861 z "},"Ď":{"ha":740,"x_min":0,"x_max":0,"o":"m 814 511 b 524 857 818 606 790 857 b 450 851 501 857 476 856 l 424 847 b 449 864 433 853 442 858 b 669 1172 508 956 629 1115 b 594 1181 651 1178 625 1181 b 494 1171 563 1181 526 1178 b 443 1156 475 1168 458 1164 b 357 1036 421 1128 388 1088 b 260 1092 335 1060 293 1083 b 19 968 188 1078 64 1008 b 253 801 92 932 181 878 b 65 718 193 781 129 754 b 56 657 61 700 58 681 b 36 272 44 560 36 413 b 61 -49 36 146 43 24 b 126 -54 81 -53 104 -54 b 201 -50 151 -54 176 -53 b 806 433 556 -10 760 197 b 814 511 808 460 814 485 z m 531 344 b 379 206 518 278 463 224 b 374 297 376 232 374 263 b 382 418 374 332 376 371 b 451 446 406 432 426 443 b 531 344 518 454 543 413 z "},"ď":{"ha":740,"x_min":0,"x_max":0,"o":"m 814 511 b 524 857 818 606 790 857 b 450 851 501 857 476 856 l 424 847 b 449 864 433 853 442 858 b 669 1172 508 956 629 1115 b 594 1181 651 1178 625 1181 b 494 1171 563 1181 526 1178 b 443 1156 475 1168 458 1164 b 357 1036 421 1128 388 1088 b 260 1092 335 1060 293 1083 b 19 968 188 1078 64 1008 b 253 801 92 932 181 878 b 65 718 193 781 129 754 b 56 657 61 700 58 681 b 36 272 44 560 36 413 b 61 -49 36 146 43 24 b 126 -54 81 -53 104 -54 b 201 -50 151 -54 176 -53 b 806 433 556 -10 760 197 b 814 511 808 460 814 485 z m 531 344 b 379 206 518 278 463 224 b 374 297 376 232 374 263 b 382 418 374 332 376 371 b 451 446 406 432 426 443 b 531 344 518 454 543 413 z "},"Ů":{"ha":789,"x_min":0,"x_max":0,"o":"m 639 993 b 501 1163 651 1094 594 1163 b 197 889 358 1163 213 1031 b 289 726 189 804 228 746 b 26 608 174 693 53 642 b 6 481 18 563 11 522 b -1 349 1 433 -1 390 b 294 -57 -1 81 99 -57 b 356 -53 315 -57 336 -56 b 860 526 676 -12 828 239 b 867 640 864 564 867 601 b 842 881 867 719 857 801 b 799 879 831 882 814 881 b 549 818 731 872 628 847 b 639 993 596 867 631 931 z m 481 508 b 474 349 481 451 479 397 b 410 158 463 243 440 168 b 368 319 381 149 368 219 b 381 528 368 382 372 456 b 410 731 388 599 397 669 b 468 756 429 736 449 743 b 481 508 476 675 481 590 z m 379 910 b 429 960 382 939 403 960 b 456 907 444 960 461 947 b 406 856 453 881 432 856 b 379 910 382 856 376 888 z "},"ů":{"ha":789,"x_min":0,"x_max":0,"o":"m 639 993 b 501 1163 651 1094 594 1163 b 197 889 358 1163 213 1031 b 289 726 189 804 228 746 b 26 608 174 693 53 642 b 6 481 18 563 11 522 b -1 349 1 433 -1 390 b 294 -57 -1 81 99 -57 b 356 -53 315 -57 336 -56 b 860 526 676 -12 828 239 b 867 640 864 564 867 601 b 842 881 867 719 857 801 b 799 879 831 882 814 881 b 549 818 731 872 628 847 b 639 993 596 867 631 931 z m 481 508 b 474 349 481 451 479 397 b 410 158 463 243 440 168 b 368 319 381 149 368 219 b 381 528 368 382 372 456 b 410 731 388 599 397 669 b 468 756 429 736 449 743 b 481 508 476 675 481 590 z m 379 910 b 429 960 382 939 403 960 b 456 907 444 960 461 947 b 406 856 453 881 432 856 b 379 910 382 856 376 888 z "}}}
